<svg version="1" xmlns="http://www.w3.org/2000/svg" width="600" height="600" viewBox="0 0 450.000000 450.000000"><path d="M191 123c0 31.9-.4 58-.8 58-.5 0-24.4-9.2-53.2-20.5-28.8-11.3-52.6-20.2-53-19.8-1.8 2.1-21.3 62.4-20.5 63.2.6.4 24.4 8.8 53 18.6s52.3 18.1 52.8 18.5c.4.3-14.3 21-32.8 45.8-18.4 24.9-33.5 45.5-33.5 45.9 0 1.5 54.2 38.5 55 37.7.4-.5 15.1-21.6 32.5-46.9 17.5-25.3 32.1-46.4 32.5-46.8.4-.5 16.1 20.4 34.9 46.5 18.8 26 34.5 47.4 34.9 47.5.7.3 48.4-34.6 50.8-37 .9-.9-7.1-12.3-32.6-46.7-18.7-25-33.6-45.8-33.2-46.1.4-.4 25.3-8.8 55.4-18.8l54.7-18.2-3-8.2c-1.7-4.5-6.9-18.8-11.6-31.7-4.8-12.9-8.8-23.7-8.9-23.9-.2-.2-24.2 9.1-53.3 20.7L258 181.7V65h-67v58z"/></svg>