<?xml version="1.0" encoding="utf-8"?> <!-- Generator: IcoMoon.io --> <!DOCTYPE svg PUBLIC "-//W3C//DTD SVG 1.1//EN" "http://www.w3.org/Graphics/SVG/1.1/DTD/svg11.dtd"> <svg width="512" height="512" viewBox="0 0 512 512" xmlns="http://www.w3.org/2000/svg" xmlns:xlink="http://www.w3.org/1999/xlink" fill="#000000"><g><path d="M 480,128c 17.673,0, 32-14.327, 32-32L 512,32 l-64,0 L 448,0 L 32,0 C 14.4,0,0,14.399,0,32l0,448 c0,17.6, 14.398,32, 32,32l 416,0 L 448,384 l 32,0 c 17.673,0, 32-14.327, 32-32l0-64 l-64,0 l0-32 l 32,0 c 17.673,0, 32-14.327, 32-32l0-64 l-64,0 l0-32 L 480,128 z M 288,128.165 c 35.255,0, 63.835,28.58, 63.835,63.835s-28.58,63.835-63.835,63.835c-35.255,0-63.835-28.58-63.835-63.835 S 252.745,128.165, 288,128.165z M 128,480L 96,480 L 96,32 l 32,0 L 128,480 z M 384,384L 192,384 l0-32 c0-35.347, 28.654-64, 64-64l0,0 l 64,0 c 35.348,0, 64,28.653, 64,64 L 384,384 z"></path></g></svg>