<?xml version="1.0" encoding="utf-8"?> <!-- Generator: IcoMoon.io --> <!DOCTYPE svg PUBLIC "-//W3C//DTD SVG 1.1//EN" "http://www.w3.org/Graphics/SVG/1.1/DTD/svg11.dtd"> <svg width="512" height="512" viewBox="0 0 512 512" xmlns="http://www.w3.org/2000/svg" xmlns:xlink="http://www.w3.org/1999/xlink" fill="#000000"><g><path d="M 256,64C 132.288,64, 32,164.288, 32,288s 100.288,224, 224,224s 224-100.288, 224-224S 379.712,64, 256,64z M 256,468 c-99.412,0-180-80.589-180-180c0-99.412, 80.588-180, 180-180c 99.411,0, 180,80.588, 180,180C 436,387.411, 355.411,468, 256,468z M 467.392,143.587C 475.413,129.561, 480,113.316, 480,96c0-53.020-42.98-96-96-96c-30.909,0-58.401,14.611-75.96,37.298 C 373.982,50.916, 430.643,89.897, 467.392,143.587z M 203.96,37.298C 186.402,14.611, 158.909,0, 128,0C 74.98,0, 32,42.98, 32,96 c0,17.316, 4.587,33.561, 12.608,47.587C 81.358,89.897, 138.019,50.916, 203.96,37.298z M 224,160l 32,0 l0,160 l-32,0 L 224,160 z M 256,288l 96,0 l0,32 l-96,0 L 256,288 z"></path></g></svg>