<svg xmlns="http://www.w3.org/2000/svg" xmlns:xlink="http://www.w3.org/1999/xlink" x="0px" y="0px" width="512px" height="512px" viewBox="0 0 512 512" enable-background="new 0 0 512 512" xml:space="preserve"><path d="M49.016,163.763c8.357-40.797,3.02-126.207,145.152-148.736c142.132-22.54,270.2,49.112,237.987,205.727 c0,28.546,56.884,72.866,43.178,87.845c-13.706,14.98-36.963,15.561-36.963,15.561s15.13,28.545,8.32,36.431 c-6.794,7.888-25.697,4.511-25.697,4.511s17.564,12.575,17.564,22.338s-29.659,22.736-29.659,22.736s5.438,54.018-39.1,50.267 C325.26,456.696,317.76,444.2,317.76,444.2l-13.203,54.612H132.171l6.065-118.699C138.236,380.124,32.376,265.935,49.016,163.763z M179.771,248.374c-3.533-6.448-4.562-14.241-2.195-21.801c4.653-14.805,20.495-23.077,35.406-18.47 c14.91,4.612,23.224,20.364,18.588,35.174c-2.383,7.56-7.667,13.396-14.268,16.709l-3.76,11.997l63.101,19.522l24.306-77.53 l9.867,3.054c3.882,7.602,10.691,13.714,19.531,16.448c17.303,5.362,35.688-4.234,41.073-21.428 c5.393-17.194-4.276-35.473-21.57-40.824c-8.833-2.724-17.945-1.548-25.457,2.527l-9.878-3.059l21.765-69.455l-63.111-19.523 l-2.972,9.479c3.538,6.438,4.562,14.226,2.19,21.79c-4.637,14.805-20.479,23.083-35.395,18.465 c-14.909-4.623-23.23-20.364-18.583-35.18c2.376-7.565,7.661-13.401,14.262-16.714l2.973-9.48l-64.348-19.901l-22.85,72.918 l6.666,2.069c6.478-3.527,14.342-4.542,21.938-2.187c14.901,4.607,23.237,20.359,18.584,35.164 c-4.646,14.81-20.489,23.088-35.405,18.47c-7.597-2.356-13.486-7.618-16.805-14.167l-6.681-2.059l-25.083,80.068l64.337,19.908 L179.771,248.374z"/> </svg>