<?xml version="1.0" encoding="utf-8"?> <!-- Generator: IcoMoon.io --> <!DOCTYPE svg PUBLIC "-//W3C//DTD SVG 1.1//EN" "http://www.w3.org/Graphics/SVG/1.1/DTD/svg11.dtd"> <svg width="512" height="512.5670166015625" viewBox="0 0 512 512.5670166015625" xmlns="http://www.w3.org/2000/svg" xmlns:xlink="http://www.w3.org/1999/xlink" fill="#000000"><g><path d="M 432,160c-17.6,0-32,14.4-32,32l0,128 c0,17.6, 14.4,32, 32,32s 32-14.4, 32-32L 464,192 C 464,174.4, 449.6,160, 432,160zM 48,160c-17.6,0-32,14.4-32,32l0,128 c0,17.6, 14.4,32, 32,32s 32-14.4, 32-32L 80,192 C 80,174.4, 65.599,160, 48,160zM 96,368c0,26.51, 21.49,48, 48,48l 16,0 l0,64 c0,17.6, 14.4,32, 32,32s 32-14.4, 32-32l0-64 l 32,0 l0,64 c0,17.6, 14.401,32, 32,32s 32-14.4, 32-32 l0-64 l 16,0 c 26.51,0, 48-21.49, 48-48L 384,192 L 96,192 L 96,368 zM 299.299,44.747l 20.252-38.903c 1.016-1.951, 0.25-4.379-1.701-5.395s-4.379-0.25-5.395,1.701l-20.559,39.493 C 275.797,35.419, 258.299,32, 240,32c-18.298,0-35.796,3.419-51.898,9.643L 167.544,2.151c-1.016-1.951-3.443-2.717-5.395-1.701 s-2.717,3.443-1.701,5.395l 20.25,38.904c-45.315,20.509-78.12,63.792-83.81,115.252l 286.22,0 C 377.42,108.539, 344.615,65.257, 299.299,44.747z M 176,135.2c-12.813,0-23.2-10.387-23.2-23.2c0-12.813, 10.387-23.2, 23.2-23.2 s 23.2,10.387, 23.2,23.2C 199.199,124.813, 188.813,135.2, 176,135.2z M 304,135.2c-12.813,0-23.201-10.387-23.201-23.2 c0-12.813, 10.389-23.2, 23.201-23.2s 23.199,10.387, 23.199,23.2C 327.199,124.813, 316.813,135.2, 304,135.2z"></path></g></svg>