<?xml version="1.0" encoding="utf-8"?> <!-- Generator: IcoMoon.io --> <!DOCTYPE svg PUBLIC "-//W3C//DTD SVG 1.1//EN" "http://www.w3.org/Graphics/SVG/1.1/DTD/svg11.dtd"> <svg width="512.75" height="512" viewBox="0 0 512.75 512" xmlns="http://www.w3.org/2000/svg" xmlns:xlink="http://www.w3.org/1999/xlink" fill="#000000"><g><path d="M 512.75,400c0-144-128-112-128-224c0-9.28-0.894-17.21-2.524-23.964c-8.415-56.509-46.078-101.86-94.886-115.68 c 0.433-1.974, 0.66-4.016, 0.66-6.105C 288,13.612, 273.6,0, 256,0c-17.6,0-32,13.612-32,30.25c0,2.090, 0.228,4.132, 0.66,6.105 c-54.735,15.499-95.457,70.649-96.627,136.721c-0.020,0.96-0.033,1.932-0.033,2.923C 128,288,0,256,0,400 c0,38.113, 85.295,69.998, 199.485,78.040C 210.247,498.242, 231.513,512, 256,512s 45.754-13.758, 56.515-33.96 C 426.705,469.998, 512,438.113, 512,400c0-0.114-0.013-0.228-0.014-0.341L 512.75,400z M 413.123,427.048 c-27.115,7.235-59.079,12.438-93.384,15.324C 316.887,409.663, 289.448,384, 256,384s-60.887,25.663-63.739,58.372 c-34.304-2.886-66.269-8.089-93.384-15.324C 61.562,417.091, 43.722,405.953, 37.193,400c 6.529-5.953, 24.369-17.091, 61.684-27.048 C 142.263,361.376, 198.063,355, 256,355s 113.737,6.376, 157.123,17.952c 37.315,9.957, 55.155,21.095, 61.684,27.048 C 468.278,405.953, 450.438,417.091, 413.123,427.048z"></path></g></svg>