<?xml version="1.0" encoding="utf-8"?> <!-- Generator: IcoMoon.io --> <!DOCTYPE svg PUBLIC "-//W3C//DTD SVG 1.1//EN" "http://www.w3.org/Graphics/SVG/1.1/DTD/svg11.dtd"> <svg width="512" height="512" viewBox="0 0 512 512" xmlns="http://www.w3.org/2000/svg" xmlns:xlink="http://www.w3.org/1999/xlink" fill="#000000"><g><path d="M 478.898,192l-28.103,0 l-0.6,0 c-17.583,0-32.994-14.871-34.195-32l0,0C 416.002,68.666, 342.371,0, 250.405,0l-83.912,0 C 74.587,0, 0.065,74,0,165.333l0,181.399 C0,438.059, 74.587,512, 166.492,512l 179.21,0 C 437.676,512, 512,438.059, 512,346.732L 512,229.541 C 512,211.29, 497.28,192, 478.898,192z M 160,128l 96,0 c 17.6,0, 32,14.4, 32,32s-14.4,32-32,32l-96,0 c-17.6,0-32-14.4-32-32S 142.4,128, 160,128 z M 352,384L 160,384 c-17.6,0-32-14.4-32-32s 14.4-32, 32-32l 192,0 c 17.6,0, 32,14.4, 32,32S 369.6,384, 352,384z"></path></g></svg>