<?xml version="1.0" encoding="utf-8"?> <!-- Generator: IcoMoon.io --> <!DOCTYPE svg PUBLIC "-//W3C//DTD SVG 1.1//EN" "http://www.w3.org/Graphics/SVG/1.1/DTD/svg11.dtd"> <svg width="512" height="512" viewBox="0 0 512 512" xmlns="http://www.w3.org/2000/svg" xmlns:xlink="http://www.w3.org/1999/xlink" fill="#000000"><g><path d="M 426.674,0L 85.325,0 C 38.202,0,0,38.209,0,85.341l0,341.318 C0,473.792, 38.202,512, 85.325,512l 341.348,0 c 47.125,0, 85.324-38.208, 85.324-85.341L 512,85.341C 512,38.209, 473.798,0, 426.674,0z M 448,324.049 C 448,392.544, 392.257,448, 323.278,448L 188.869,448 C 119.941,448, 64,392.544, 64,324.049L 64,188 c 0.048-68.5, 55.94-124, 124.869-124l 62.934,0 C 320.779,64, 376.002,115.5, 376,184c 0.901,12.847, 12.461,24, 25.646,24l 0.448,0 l 21.078,0 C 436.959,208, 448,222.467, 448,236.156L 448,324.049 zM 352,320c0,17.6-14.4,32-32,32L 192,352 c-17.6,0-32-14.4-32-32l0,0c0-17.6, 14.4-32, 32-32l 128,0 C 337.6,288, 352,302.4, 352,320 L 352,320zM 288,192c0,17.6-14.4,32-32,32l-64,0 c-17.6,0-32-14.4-32-32l0,0c0-17.6, 14.4-32, 32-32l 64,0 C 273.6,160, 288,174.4, 288,192L 288,192 z"></path></g></svg>