<?xml version="1.0" encoding="utf-8"?> <!-- Generator: IcoMoon.io --> <!DOCTYPE svg PUBLIC "-//W3C//DTD SVG 1.1//EN" "http://www.w3.org/Graphics/SVG/1.1/DTD/svg11.dtd"> <svg width="512" height="512" viewBox="0 0 512 512" xmlns="http://www.w3.org/2000/svg" xmlns:xlink="http://www.w3.org/1999/xlink" fill="#000000"><g><path d="M 480,128L 352,128 L 352,96 c0-17.6-14.4-32-32-32L 192,64 c-17.602,0-32,14.4-32,32l0,32 L 32,128 c-17.6,0-32,14.4-32,32l0,288 c0,17.601, 14.398,32, 32,32l 448,0 c 17.6,0, 32-14.399, 32-32L 512,160 C 512,142.4, 497.6,128, 480,128z M 192,96.058 c 0.017-0.020, 0.037-0.041, 0.057-0.058l 127.886,0 c 0.021,0.017, 0.041,0.038, 0.059,0.058L 320.002,128 L 192,128 L 192,96.058 z M 480,256l-64,0 l0,48 c0,8.801-7.2,16-16,16l-32,0 c-8.802,0-16-7.199-16-16l0-48 L 160,256 l0,48 c0,8.801-7.2,16-16,16l-32,0 c-8.801,0-16-7.199-16-16l0-48 L 32,256 l0-32 l 448,0 L 480,256 z"></path></g></svg>