<?xml version="1.0" encoding="utf-8"?> <!-- Generator: IcoMoon.io --> <!DOCTYPE svg PUBLIC "-//W3C//DTD SVG 1.1//EN" "http://www.w3.org/Graphics/SVG/1.1/DTD/svg11.dtd"> <svg width="512" height="512" viewBox="0 0 512 512" xmlns="http://www.w3.org/2000/svg" xmlns:xlink="http://www.w3.org/1999/xlink" fill="#000000"><g><path d="M 192,32L 32,32 C 14.4,32,0,46.4,0,64l0,160 c0,17.6, 14.398,32, 32,32l 160,0 c 17.6,0, 32-14.4, 32-32L 224,64 C 224,46.4, 209.6,32, 192,32z M 192,160L 32,160 l0-32 l 160,0 L 192,160 z M 448,32L 288,32 c-17.602,0-32,14.4-32,32l0,416 c0,17.6, 14.398,32, 32,32l 160,0 c 17.6,0, 32-14.4, 32-32L 480,64 C 480,46.4, 465.6,32, 448,32z M 448,320L 288,320 l0-32 l 160,0 L 448,320 z M 448,224L 288,224 l0-32 l 160,0 L 448,224 z M 192,288L 32,288 c-17.6,0-32,14.4-32,32l0,160 c0,17.6, 14.398,32, 32,32l 160,0 c 17.6,0, 32-14.4, 32-32L 224,320 C 224,302.4, 209.6,288, 192,288z M 192,416l-64,0 l0,64 L 96,480 l0-64 L 32,416 l0-32 l 64,0 l0-64 l 32,0 l0,64 l 64,0 L 192,416 z"></path></g></svg>