<?xml version="1.0" encoding="utf-8"?> <!-- Generator: IcoMoon.io --> <!DOCTYPE svg PUBLIC "-//W3C//DTD SVG 1.1//EN" "http://www.w3.org/Graphics/SVG/1.1/DTD/svg11.dtd"> <svg width="512" height="512" viewBox="0 0 512 512" xmlns="http://www.w3.org/2000/svg" xmlns:xlink="http://www.w3.org/1999/xlink" fill="#000000"><g><path d="M 192.768,271.376c-2.848,4.112-6.32,14.416-10.432,16.944c-4.112,2.512-8.752,4.272-13.904,5.248 c-5.168,0.992-10.512,1.424-16.032,1.264l0,24.432 l 39.472,0 L 191.872,416 l 31.856,0 l0-159.936 l-25.344,0 C 197.488,262.16, 195.616,267.264, 192.768,271.376z M 368,128l 32,0 c 8.848,0, 16-7.168, 16-16L 416,16 c0-8.832-7.152-16-16-16l-32,0 c-8.848,0-16,7.168-16,16l0,96 C 352,120.832, 359.152,128, 368,128z M 112,128l 32,0 c 8.832,0, 16-7.168, 16-16L 160,16 c0-8.832-7.168-16-16-16L 112,0 C 103.168,0, 96,7.168, 96,16l0,96 C 96,120.832, 103.168,128, 112,128z M 480,64l-32,0 l0,80 c0,8.832-7.152,16-16,16l-96,0 c-8.848,0-16-7.168-16-16L 320,64 l-128,0 l0,80 c0,8.832-7.168,16-16,16L 80,160 c-8.832,0-16-7.168-16-16L 64,64 L 32,64 C 14.336,64,0,78.336,0,96l0,384 c0,17.664, 14.336,32, 32,32l 448,0 c 17.664,0, 32-14.336, 32-32L 512,96 C 512,78.336, 497.664,64, 480,64z M 480,464c0,8.848-7.152,16-16,16L 48,480 c-8.832,0-16-7.152-16-16L 32,208 c0-8.832, 7.168-16, 16-16l 416,0 c 8.848,0, 16,7.168, 16,16L 480,464 z M 255.76,287.712l 79.488,0 c-14.976,18.432-27.024,37.2-36.24,59.28c-9.2,22.096-10.208,45.088-11.984,68.992l 34.096,0 c 0.144-10.656-3.12-22.16-0.816-34.496c 2.336-12.336, 5.632-24.512, 9.872-36.56c 4.272-12.032, 9.568-23.376, 15.936-34.032 c 6.336-10.672, 13.648-19.664, 21.872-26.976l0-27.872 l-112.24,0 L 255.744,287.712 z"></path></g></svg>