<?xml version="1.0" encoding="utf-8"?><!-- Generator: Adobe Illustrator 13.0.1, SVG Export Plug-In . SVG Version: 6.00 Build 14948)  --><!DOCTYPE svg PUBLIC "-//W3C//DTD SVG 1.1//EN" "http://www.w3.org/Graphics/SVG/1.1/DTD/svg11.dtd"><svg version="1.1" id="Capa_1" xmlns="http://www.w3.org/2000/svg" xmlns:xlink="http://www.w3.org/1999/xlink" x="0px" y="0px" width="512px" height="512px" viewBox="0 0 512 512" enable-background="new 0 0 512 512" xml:space="preserve"><g><path d="M140.5,318.5c0,57.438,46.562,104,104,104c57.438,0,104-46.562,104-104s-46.562-104-104-104 C187.062,214.5,140.5,261.062,140.5,318.5z M468.5,142.5h-112c-8-32-16-64-48-64h-128c-32,0-40,32-48,64h-112 c-17.6,0-32,14.4-32,32v288c0,17.6,14.4,32,32,32h448c17.6,0,32-14.4,32-32v-288C500.5,156.9,486.1,142.5,468.5,142.5z M244.5,460.5c-78.425,0-142-63.574-142-142c0-78.425,63.575-142,142-142c78.426,0,142,63.575,142,142 C386.5,396.926,322.927,460.5,244.5,460.5z M468.5,238.5h-64v-32h64V238.5z"/></g></svg>
