<?xml version="1.0" encoding="utf-8"?> <!-- Generator: IcoMoon.io --> <!DOCTYPE svg PUBLIC "-//W3C//DTD SVG 1.1//EN" "http://www.w3.org/Graphics/SVG/1.1/DTD/svg11.dtd"> <svg width="512" height="512" viewBox="0 0 512 512" xmlns="http://www.w3.org/2000/svg" xmlns:xlink="http://www.w3.org/1999/xlink" fill="#000000"><g><path d="M 192,144A80,80 10800 1 0 352,144A80,80 10800 1 0 192,144zM0,144A80,80 10800 1 0 160,144A80,80 10800 1 0 0,144zM 384,304l0-48 c0-17.6-14.4-32-32-32l-80,0 L 80,224 L 32,224 c-17.6,0-32,14.4-32,32l0,160 c0,17.6, 14.4,32, 32,32l 320,0 c 17.6,0, 32-14.4, 32-32 l0-48 l 128,80L 512,224 L 384,304z M 320,384L 64,384 l0-96 l 256,0 L 320,384 z"></path></g></svg>