<?xml version="1.0" encoding="utf-8"?> <!-- Generator: IcoMoon.io --> <!DOCTYPE svg PUBLIC "-//W3C//DTD SVG 1.1//EN" "http://www.w3.org/Graphics/SVG/1.1/DTD/svg11.dtd"> <svg width="515.6240234375" height="512" viewBox="0 0 515.6240234375 512" xmlns="http://www.w3.org/2000/svg" xmlns:xlink="http://www.w3.org/1999/xlink" fill="#000000"><g><path d="M 488.791,97.231c-16.992-4.854-34.705,4.985-39.56,21.978L 446.72,128L 148.249,128 l-4.496-35.969 C 141.751,76.017, 128.138,64, 112,64L 32,64 C 14.327,64,0,78.327,0,96s 14.327,32, 32,32l 51.751,0 l 28.496,227.969 C 114.249,371.982, 127.862,384, 144,384l 272,0 c 14.287,0, 26.844-9.472, 30.769-23.209l 64-224 C 515.624,119.798, 505.784,102.086, 488.791,97.231z M 256,256l0-32 l 63.998,0 l0,32 L 256,256 z M 319.998,288l0,32 L 256,320 l0-32 L 319.998,288 z M 256,192l0-32 l 63.998,0 l0,32 L 256,192 z M 152.249,160L 224,160 l0,32 l-67.751,0 L 152.249,160z M 160.249,224L 224,224 l0,32 l-59.751,0 L 160.249,224z M 168.249,288L 224,288 l0,32 l-51.751,0 L 168.249,288z M 391.862,320l-39.864,0 l0-32 l 49.007,0 L 391.862,320z M 410.148,256l-58.15,0 l0-32 l 67.293,0 L 410.148,256z M 428.434,192l-76.436,0 l0-32 l 85.579,0 L 428.434,192zM 128,464A48,48 2520 1 0 224,464A48,48 2520 1 0 128,464zM 320,464A48,48 2520 1 0 416,464A48,48 2520 1 0 320,464z"></path></g></svg>