<?xml version="1.0" encoding="utf-8"?> <!-- Generator: IcoMoon.io --> <!DOCTYPE svg PUBLIC "-//W3C//DTD SVG 1.1//EN" "http://www.w3.org/Graphics/SVG/1.1/DTD/svg11.dtd"> <svg width="512" height="512" viewBox="0 0 512 512" xmlns="http://www.w3.org/2000/svg" xmlns:xlink="http://www.w3.org/1999/xlink" fill="#000000"><g><path d="M 129.139,223.271 L 55.873,96.37 C 102.782,37.638 174.99,0 256,0 C 349.716,0 431.655,50.368 476.266,125.5 L 267.381,125.5 C 263.629,125.175 259.835,125 256,125 C 195.063,125 143.711,166.822 129.139,223.271 ZM 347.653,162.5 L 494.383,162.5 C 505.753,191.465 512,223.002 512,256 C 512,396.413 398.95,510.402 258.907,511.963 L 363.604,330.624 C 378.344,309.435 387,283.711 387,256 C 387,219.415 371.918,186.29 347.653,162.5 ZM 163,256 C 163,204.72 204.72,163 256,163 C 307.28,163 349,204.72 349,256 C 349,307.28 307.28,349 256,349 C 204.72,349 163,307.28 163,256 ZM 291.091,382.221 L 217.802,509.16 C 94.536,490.718 0,384.402 0,256 C 0,210.391 11.942,167.577 32.848,130.488 L 137.363,311.515 C 158.297,356.071 203.601,387 256,387 C 268.15,387 279.918,385.33 291.091,382.221 Z"></path></g></svg>