<?xml version="1.0" encoding="utf-8"?>
<!-- Generator: Adobe Illustrator 16.0.0, SVG Export Plug-In . SVG Version: 6.00 Build 0)  -->
<!DOCTYPE svg PUBLIC "-//W3C//DTD SVG 1.1//EN" "http://www.w3.org/Graphics/SVG/1.1/DTD/svg11.dtd">
<svg version="1.1" id="Capa_1" xmlns="http://www.w3.org/2000/svg" xmlns:xlink="http://www.w3.org/1999/xlink" x="0px" y="0px"
	 width="512px" height="512px" viewBox="0 0 512 512" enable-background="new 0 0 512 512" xml:space="preserve">
<g id="c142_x">
	<path d="M254.763,56.5C145.262,56.5,56.5,145.29,56.5,254.805c0,109.502,88.762,198.291,198.263,198.291
		c109.557,0,198.333-88.803,198.333-198.291C453.096,145.29,364.32,56.5,254.763,56.5z M340.028,308.5l-31.584,31.542
		c0,0-49.963-53.611-53.695-53.611c-3.67,0-53.653,53.611-53.653,53.611L169.499,308.5c0,0,53.667-49.242,53.667-53.626
		c0-4.452-53.667-53.701-53.667-53.701l31.598-31.612c0,0,50.392,53.633,53.653,53.633c3.29,0,53.695-53.633,53.695-53.633
		l31.584,31.612c0,0-53.682,49.962-53.682,53.701C286.347,258.44,340.028,308.5,340.028,308.5z"/>
</g>
</svg>
