<?xml version="1.0" encoding="utf-8"?> <!-- Generator: IcoMoon.io --> <!DOCTYPE svg PUBLIC "-//W3C//DTD SVG 1.1//EN" "http://www.w3.org/Graphics/SVG/1.1/DTD/svg11.dtd"> <svg width="512" height="512" viewBox="0 0 512 512" xmlns="http://www.w3.org/2000/svg" xmlns:xlink="http://www.w3.org/1999/xlink" fill="#000000"><g><path d="M 446.134,193.245C 447.356,187.69, 448,181.921, 448,176c0-44.183-35.817-80-80-80c-7.111,0-14.007,0.934-20.566,2.676 C 335.035,60, 298.789,32, 256,32c-43.674,0-80.527,29.168-92.163,69.085C 152.466,97.774, 140.441,96, 128,96C 57.308,96,0,153.308,0,224 c0,70.694, 57.308,128, 128,128l 64,0 l0,96 l 128,0 l0-96 l 112,0 c 44.183,0, 80-35.816, 80-80C 512,232.64, 483.573,199.919, 446.134,193.245z M 288,320l0,96 l-64,0 l0-96 l-80,0 l 112-112l 112,112L 288,320 z"></path></g></svg>