<?xml version="1.0" encoding="utf-8"?> <!-- Generator: IcoMoon.io --> <!DOCTYPE svg PUBLIC "-//W3C//DTD SVG 1.1//EN" "http://www.w3.org/Graphics/SVG/1.1/DTD/svg11.dtd"> <svg width="512" height="512" viewBox="0 0 512 512" xmlns="http://www.w3.org/2000/svg" xmlns:xlink="http://www.w3.org/1999/xlink" fill="#000000"><g><path d="M 256,0C 114.615,0,0,114.615,0,256s 114.615,256, 256,256s 256-114.615, 256-256S 397.385,0, 256,0z M 256,464 c-114.875,0-208-93.125-208-208S 141.125,48, 256,48s 208,93.125, 208,208S 370.875,464, 256,464zM 304,208l-144-80l-32,0 l0,32 l 80,144l 144,80l 32,0 l0-32 L 304,208z M 256,288c-17.673,0-32-14.327-32-32c0-17.673, 14.327-32, 32-32 c 17.673,0, 32,14.327, 32,32C 288,273.673, 273.673,288, 256,288z"></path></g></svg>