<?xml version="1.0" encoding="utf-8"?> <!-- Generator: IcoMoon.io --> <!DOCTYPE svg PUBLIC "-//W3C//DTD SVG 1.1//EN" "http://www.w3.org/Graphics/SVG/1.1/DTD/svg11.dtd"> <svg width="512" height="512" viewBox="0 0 512 512" xmlns="http://www.w3.org/2000/svg" xmlns:xlink="http://www.w3.org/1999/xlink" fill="#000000"><g><path d="M0,32l0,448 l 512,0 L 512,32 L0,32 z M 480,448L 32,448 L 32,64 l 448,0 L 480,448 zM 448,96L 64,96 l0,320 l 384,0 L 448,96 z M 224,256l-32,0 l0,32 l-32,0 l0,32 l-32,0 l0-32 l 32,0 l0-32 l 32,0 l0-32 l-32,0 l0-32 l-32,0 l0-32 l 32,0 l0,32 l 32,0 l0,32 l 32,0 L 224,256 z M 352,320l-96,0 l0-32 l 96,0 L 352,320 z"></path></g></svg>