<?xml version="1.0" encoding="utf-8"?> <!-- Generator: IcoMoon.io --> <!DOCTYPE svg PUBLIC "-//W3C//DTD SVG 1.1//EN" "http://www.w3.org/Graphics/SVG/1.1/DTD/svg11.dtd"> <svg width="512" height="512" viewBox="0 0 512 512" xmlns="http://www.w3.org/2000/svg" xmlns:xlink="http://www.w3.org/1999/xlink" fill="#000000"><g><path d="M 464,64L 48,64 C 21.6,64,0,85.6,0,112l0,288 c0,26.4, 21.6,48, 48,48l 416,0 c 26.4,0, 48-21.6, 48-48L 512,112 C 512,85.6, 490.4,64, 464,64z M 48,96 l 416,0 c 8.673,0, 16,7.327, 16,16l0,48 L 32,160 l0-48 C 32,103.327, 39.327,96, 48,96z M 464,416L 48,416 c-8.673,0-16-7.327-16-16L 32,256 l 448,0 l0,144 C 480,408.673, 472.673,416, 464,416zM 64,320L 96,320L 96,384L 64,384zM 128,320L 160,320L 160,384L 128,384zM 192,320L 224,320L 224,384L 192,384z"></path></g></svg>