<?xml version="1.0" encoding="utf-8"?> <!-- Generator: IcoMoon.io --> <!DOCTYPE svg PUBLIC "-//W3C//DTD SVG 1.1//EN" "http://www.w3.org/Graphics/SVG/1.1/DTD/svg11.dtd"> <svg width="512" height="512" viewBox="0 0 512 512" xmlns="http://www.w3.org/2000/svg" xmlns:xlink="http://www.w3.org/1999/xlink" fill="#000000"><g><path d="M 419.661,148.208 C 458.483,175.723 490.346,212.754 512,256 C 464.439,350.979 367.657,416 256,416 C 224.717,416 194.604,410.894 166.411,401.458 L 205.389,362.48 C 221.918,366.13 238.875,368 256,368 C 300.779,368 344.427,355.257 382.223,331.148 C 412.304,311.96 437.795,286.26 456.941,255.999 C 438.415,226.716 413.934,201.724 385.116,182.752 L 419.661,148.208 ZM 256,349 C 244.638,349 233.624,347.512 223.136,344.733 L 379.729,188.141 C 382.51,198.627 384,209.638 384,221 C 384,291.692 326.692,349 256,349 ZM 480,0l-26.869,0 L 343.325,109.806C 315.787,100.844, 286.448,96, 256,96C 144.341,96, 47.559,161.021,0,256 c 21.329,42.596, 52.564,79.154, 90.597,106.534L0,453.131L0,480 l 26.869,0 L 480,26.869L 480,0 z M 208,157c 24.022,0, 43.923,17.647, 47.446,40.685 l-54.762,54.762C 177.647,248.923, 160,229.022, 160,205C 160,178.49, 181.49,157, 208,157z M 55.058,256 c 19.146-30.262, 44.637-55.962, 74.717-75.148c 1.959-1.25, 3.938-2.461, 5.929-3.65C 130.725,190.866, 128,205.613, 128,221 c0,29.262, 9.825,56.224, 26.349,77.781l-29.275,29.275C 97.038,309.235, 73.197,284.67, 55.058,256z"></path></g></svg>