<?xml version="1.0" encoding="utf-8"?> <!-- Generator: IcoMoon.io --> <!DOCTYPE svg PUBLIC "-//W3C//DTD SVG 1.1//EN" "http://www.w3.org/Graphics/SVG/1.1/DTD/svg11.dtd"> <svg width="512" height="512" viewBox="0 0 512 512" xmlns="http://www.w3.org/2000/svg" xmlns:xlink="http://www.w3.org/1999/xlink" fill="#000000"><g><path d="M 480,512l-448,0 q-13.5,0 -22.75-9.5t-9.25-22.5l0-448 q0-13.5 9.5-22.75t 22.5-9.25l 64,0 q 13,0 22.5,9.25t 9.5,22.75l0,211 l 96-77.5q 13-8 22.5-5t 9.5,15l0,67.5 l 96-77.5q 13-8 22.5-5t 9.5,15l0,67.5 l 96-77.5q 13.5-8 22.75-5t 9.25,15l0,304.5 q0,13.5 -9.5,22.75t-22.5,9.25z"></path></g></svg>