<?xml version="1.0" encoding="utf-8"?> <!-- Generator: IcoMoon.io --> <!DOCTYPE svg PUBLIC "-//W3C//DTD SVG 1.1//EN" "http://www.w3.org/Graphics/SVG/1.1/DTD/svg11.dtd"> <svg width="512" height="512" viewBox="0 0 512 512" xmlns="http://www.w3.org/2000/svg" xmlns:xlink="http://www.w3.org/1999/xlink" fill="#000000"><g><path d="M 451.716,99.715l-71.432-71.431C 364.728,12.728, 334,0, 312,0L 72,0 C 50,0, 32,18, 32,40l0,432 c0,22, 18,40, 40,40l 368,0 c 22,0, 40-18, 40-40 L 480,168 C 480,146, 467.272,115.271, 451.716,99.715z M 429.089,122.343c 1.565,1.565, 3.125,3.487, 4.64,5.657L 352,128 L 352,46.272 c 2.17,1.515, 4.092,3.075, 5.657,4.64L 429.089,122.343z M 448,472c0,4.336-3.664,8-8,8L 72,480 c-4.336,0-8-3.664-8-8L 64,40 c0-4.336, 3.664-8, 8-8 l 240,0 c 2.416,0, 5.127,0.305, 8,0.852L 320,160 l 127.148,0 c 0.547,2.873, 0.852,5.583, 0.852,8L 448,472 z"></path></g></svg>