<?xml version="1.0" encoding="utf-8"?> <!-- Generator: IcoMoon.io --> <!DOCTYPE svg PUBLIC "-//W3C//DTD SVG 1.1//EN" "http://www.w3.org/Graphics/SVG/1.1/DTD/svg11.dtd"> <svg width="512" height="512" viewBox="0 0 512 512" xmlns="http://www.w3.org/2000/svg" xmlns:xlink="http://www.w3.org/1999/xlink" fill="#000000"><g><path d="M 464,0L 48,0 C 39.168,0, 32,7.168, 32,16l0,480 c0,8.848, 7.168,16, 16,16l 416,0 c 8.848,0, 16-7.152, 16-16L 480,16 C 480,7.168, 472.848,0, 464,0z M 80,448c-8.832,0-16-7.152-16-16s 7.168-16, 16-16s 16,7.152, 16,16S 88.832,448, 80,448z M 80,384c-8.832,0-16-7.152-16-16 s 7.168-16, 16-16s 16,7.152, 16,16S 88.832,384, 80,384z M 80,320c-8.832,0-16-7.152-16-16s 7.168-16, 16-16s 16,7.152, 16,16S 88.832,320, 80,320z M 80,256 c-8.832,0-16-7.168-16-16s 7.168-16, 16-16s 16,7.168, 16,16S 88.832,256, 80,256z M 80,192c-8.832,0-16-7.168-16-16s 7.168-16, 16-16s 16,7.168, 16,16S 88.832,192, 80,192 z M 80,128C 71.168,128, 64,120.832, 64,112s 7.168-16, 16-16s 16,7.168, 16,16S 88.832,128, 80,128z M 80,64C 71.168,64, 64,56.832, 64,48s 7.168-16, 16-16s 16,7.168, 16,16S 88.832,64, 80,64z M 384,464c0,8.848-7.152,16-16,16L 144,480 c-8.832,0-16-7.152-16-16L 128,304 c0-8.848, 7.168-16, 16-16l 224,0 c 8.848,0, 16,7.152, 16,16L 384,464 z M 384,240 c0,8.832-7.152,16-16,16L 144,256 c-8.832,0-16-7.168-16-16L 128,48 c0-8.832, 7.168-16, 16-16l 224,0 c 8.848,0, 16,7.168, 16,16L 384,240 z M 432,448c-8.848,0-16-7.152-16-16 s 7.152-16, 16-16s 16,7.152, 16,16S 440.848,448, 432,448z M 432,384c-8.848,0-16-7.152-16-16s 7.152-16, 16-16s 16,7.152, 16,16S 440.848,384, 432,384z M 432,320 c-8.848,0-16-7.152-16-16s 7.152-16, 16-16s 16,7.152, 16,16S 440.848,320, 432,320z M 432,256c-8.848,0-16-7.168-16-16s 7.152-16, 16-16s 16,7.168, 16,16 S 440.848,256, 432,256z M 432,192c-8.848,0-16-7.168-16-16s 7.152-16, 16-16s 16,7.168, 16,16S 440.848,192, 432,192z M 432,128c-8.848,0-16-7.168-16-16s 7.152-16, 16-16 s 16,7.168, 16,16S 440.848,128, 432,128z M 432,64c-8.848,0-16-7.168-16-16s 7.152-16, 16-16s 16,7.168, 16,16S 440.848,64, 432,64z"></path></g></svg>