<svg xmlns="http://www.w3.org/2000/svg" xmlns:xlink="http://www.w3.org/1999/xlink" x="0px" y="0px" width="512px" height="512px" viewBox="0 0 512 512" enable-background="new 0 0 512 512" xml:space="preserve"><path d="M174.921,474c-29.058-60.464-13.583-95.11,8.75-127.753c24.457-35.747,30.76-71.134,30.76-71.134 s19.226,24.994,11.535,64.085c33.965-37.811,40.375-98.049,35.247-121.12C337.988,271.73,370.8,387.902,326.58,474 c235.19-133.07,58.502-332.183,27.741-354.612c10.254,22.428,12.198,60.397-8.516,78.823C310.742,65.25,224.044,38,224.044,38 c10.253,68.569-37.169,143.55-82.898,199.577c-1.607-27.342-3.313-46.209-17.691-72.375c-3.228,49.67-41.187,90.158-51.466,139.924 C58.065,372.521,82.419,421.867,174.921,474z"/></svg>