<?xml version="1.0" encoding="utf-8"?> <!-- Generator: IcoMoon.io --> <!DOCTYPE svg PUBLIC "-//W3C//DTD SVG 1.1//EN" "http://www.w3.org/Graphics/SVG/1.1/DTD/svg11.dtd"> <svg width="512" height="512" viewBox="0 0 512 512" xmlns="http://www.w3.org/2000/svg" xmlns:xlink="http://www.w3.org/1999/xlink" fill="#000000"><g><path d="M 416,86.153 C 454.233,86.153 488.546,65.342 512,49.6 L 512,347.445 C 488.546,363.188 454.233,384 416,384 C 377.767,384 343.454,372.665 320,356.922 C 296.546,341.182 262.233,329.847 224,329.847 C 185.767,329.847 151.455,349.305 128,365.045 L 128,67.2 C 151.455,51.458 185.767,32 224,32 C 262.233,32 296.546,43.334 320,59.076 C 343.454,74.818 377.767,86.153 416,86.153 ZM 64,0 C 81.673,0 96,14.327 96,32 L 96,512 L 32,512 L 32,32 C 32,14.327 46.327,0 64,0 Z"></path></g></svg>