<?xml version="1.0" encoding="utf-8"?> <!-- Generator: IcoMoon.io --> <!DOCTYPE svg PUBLIC "-//W3C//DTD SVG 1.1//EN" "http://www.w3.org/Graphics/SVG/1.1/DTD/svg11.dtd"> <svg width="512" height="512" viewBox="0 0 512 512" xmlns="http://www.w3.org/2000/svg" xmlns:xlink="http://www.w3.org/1999/xlink" fill="#000000"><g><path d="M 426.688,0L 85.344,0 C 38.406,0,0,38.406,0,85.341l0,341.313 C0,473.625, 38.406,512, 85.344,512l 341.341,0 C 473.622,512, 512,473.623, 512,426.652L 512,85.341 C 512,38.406, 473.622,0, 426.688,0z M 144,336c-44.183,0-80-35.817-80-80 c0-44.183, 35.817-80, 80-80s 80,35.817, 80,80C 224,300.183, 188.183,336, 144,336z M 368,336c-44.184,0-80-35.817-80-80 c0-44.183, 35.816-80, 80-80s 80,35.817, 80,80C 448,300.183, 412.184,336, 368,336z"></path></g></svg>