<?xml version="1.0" encoding="utf-8"?> <!-- Generator: IcoMoon.io --> <!DOCTYPE svg PUBLIC "-//W3C//DTD SVG 1.1//EN" "http://www.w3.org/Graphics/SVG/1.1/DTD/svg11.dtd"> <svg width="512" height="512" viewBox="0 0 512 512" xmlns="http://www.w3.org/2000/svg" xmlns:xlink="http://www.w3.org/1999/xlink" fill="#000000"><g><path d="M 256,512q-52,0 -99.5-20.25t-81.75-54.5t-54.5-81.75t-20.25-99.5t 20.25-99.5t 54.5-81.75t 81.75-54.5t 99.5-20.25t 99.5,20.25t 81.75,54.5t 54.5,81.75t 20.25,99.5t-20.25,99.5t-54.5,81.75t-81.75,54.5t-99.5,20.25zM 433,119.5q-34.5-45 -87.5-68.5l-89.5,45l-89.5-45q-53,23.5 -88,68.5l 17.5,8.5 l0,96 l-63,47.5q 4,61.5 39.5,112.5l 87.5,0 l 32,80l0,6.5 q 31.5,9.5 64,9.5t 64-9.5l0-6.5 l 32-80l 87.5,0 q 35.5-51 39.5-112.5l-63-47.5l0-96 zM 206.5,319.5l-30.5-88.5l 80-55l 80,55l-30.5,88.5l-99,0 z"></path></g></svg>