<?xml version="1.0" encoding="utf-8"?> <!-- Generator: IcoMoon.io --> <!DOCTYPE svg PUBLIC "-//W3C//DTD SVG 1.1//EN" "http://www.w3.org/Graphics/SVG/1.1/DTD/svg11.dtd"> <svg width="512" height="512" viewBox="0 0 512 512" xmlns="http://www.w3.org/2000/svg" xmlns:xlink="http://www.w3.org/1999/xlink" fill="#000000"><g><path d="M 0.403,434.832c-0.122-1.266-0.226-2.535-0.292-3.815C 0.176,432.297, 0.281,433.566, 0.403,434.832zM 117.954,282.574c 46.005,1.369, 76.867-46.349, 68.931-106.599c-7.947-60.24-51.698-108.584-97.704-109.961 c-46.013-1.365-76.87,44.741-68.926,105C 28.196,231.248, 71.931,281.201, 117.954,282.574zM 512,128L 512,85.345 C 512,38.405, 473.609,0, 426.671,0L 85.343,0 C 39.205,0, 1.337,37.116, 0.061,82.963 c 29.181-25.693, 69.662-47.158, 111.437-47.158c 44.652,0, 178.622,0, 178.622,0l-39.974,33.809l-56.634,0 c 37.565,14.402, 57.578,58.062, 57.578,102.861c0,37.624-20.905,69.977-50.444,92.984c-28.822,22.451-34.286,31.854-34.286,50.939 c0,16.289, 30.873,44, 47.016,55.394c 47.191,33.269, 62.458,64.156, 62.458,115.728c0,8.214-1.021,16.415-3.033,24.48l 153.871,0 C 473.609,512, 512,473.625, 512,426.655L 512,160.001 l-96,0 L 416,256 l-32,0 l0-96 l-95.999,0 l0-32 L 384,128 L 384,32 l 32,0 l0,96 L 512,128 zM 92.943,382.968c 10.807,0, 20.711-0.295, 30.968-0.295c-13.573-13.167-24.313-29.3-24.313-49.19 c0-11.804, 3.782-23.168, 9.067-33.26c-5.391,0.385-10.895,0.497-16.563,0.497c-37.178,0-68.753-12.038-92.102-31.927l0,33.621 l 0.003,100.865C 26.723,390.592, 58.447,382.968, 92.943,382.968zM 1.71,443.629c-0.556-2.729-0.983-5.503-1.271-8.317C 0.726,438.126, 1.154,440.9, 1.71,443.629zM 227.725,476.423c-7.529-29.403-34.227-43.982-71.444-69.784c-13.536-4.366-28.447-6.937-44.447-7.104 c-44.809-0.482-86.554,17.471-110.108,44.186C 9.686,482.574, 44.243,512, 85.343,512l 143.222,0 c 0.908-5.564, 1.348-11.316, 1.348-17.216 C 229.913,488.517, 229.146,482.388, 227.725,476.423z"></path></g></svg>