<?xml version="1.0" encoding="utf-8"?> <!-- Generator: IcoMoon.io --> <!DOCTYPE svg PUBLIC "-//W3C//DTD SVG 1.1//EN" "http://www.w3.org/Graphics/SVG/1.1/DTD/svg11.dtd"> <svg width="512" height="512" viewBox="0 0 512 512" xmlns="http://www.w3.org/2000/svg" xmlns:xlink="http://www.w3.org/1999/xlink" fill="#000000"><g><path d="M 352,0c-88.365,0-160,71.634-160,160c0,10.013, 0.929,19.808, 2.688,29.312L0,384l0,96 c0,17.673, 14.327,32, 32,32 l 32,0 l0-32 l 64,0 l0-64 l 64,0 l0-64 l 64,0 l 41.521-41.521C 314.526,316.637, 332.869,320, 352,320c 88.365,0, 160-71.634, 160-160S 440.365,0, 352,0z M 399.937,160.063c-26.51,0-48-21.49-48-48s 21.49-48, 48-48s 48,21.49, 48,48S 426.447,160.063, 399.937,160.063z"></path></g></svg>