<?xml version="1.0" encoding="utf-8"?> <!-- Generator: IcoMoon.io --> <!DOCTYPE svg PUBLIC "-//W3C//DTD SVG 1.1//EN" "http://www.w3.org/Graphics/SVG/1.1/DTD/svg11.dtd"> <svg width="512" height="512" viewBox="0 0 512 512" xmlns="http://www.w3.org/2000/svg" xmlns:xlink="http://www.w3.org/1999/xlink" fill="#000000"><g><path d="M 483.556,56.889L 28.444,56.889 C 12.8,56.889,0,69.689,0,85.333l0,284.444 c0,15.644, 12.8,28.444, 28.444,28.444l 455.111,0 c 15.644,0, 28.444-12.8, 28.444-28.444L 512,85.333 C 512,69.689, 499.2,56.889, 483.556,56.889z M 284.444,113.778 l 56.889,0 l0,56.889 l-56.889,0 L 284.444,113.778 z M 369.778,199.111l0,56.889 l-56.889,0 l0-56.889 L 369.778,199.111 z M 199.111,113.778l 56.889,0 l0,56.889 l-56.889,0 L 199.111,113.778 z M 284.444,199.111l0,56.889 l-56.889,0 l0-56.889 L 284.444,199.111 z M 113.778,113.778l 56.889,0 l0,56.889 l-56.889,0 L 113.778,113.778 z M 199.111,199.111l0,56.889 l-56.889,0 l0-56.889 L 199.111,199.111 z M 56.889,113.778l 28.444,0 l0,56.889 L 56.889,170.667 L 56.889,113.778 z M 56.889,199.111l 56.889,0 l0,56.889 L 56.889,256 L 56.889,199.111 z M 85.333,341.333L 56.889,341.333 l0-56.889 l 28.444,0 L 85.333,341.333 z M 341.333,341.333L 113.778,341.333 l0-56.889 l 227.556,0 L 341.333,341.333 z M 455.111,341.333l-85.333,0 l0-56.889 l 85.333,0 L 455.111,341.333 z M 455.111,256l-56.889,0 l0-56.889 l 56.889,0 L 455.111,256 z M 455.111,170.667l-85.333,0 l0-56.889 l 85.333,0 L 455.111,170.667 z"></path></g></svg>