<?xml version="1.0" encoding="utf-8"?> <!-- Generator: IcoMoon.io --> <!DOCTYPE svg PUBLIC "-//W3C//DTD SVG 1.1//EN" "http://www.w3.org/Graphics/SVG/1.1/DTD/svg11.dtd"> <svg width="516.72998046875" height="512" viewBox="0 0 516.72998046875 512" xmlns="http://www.w3.org/2000/svg" xmlns:xlink="http://www.w3.org/1999/xlink" fill="#000000"><g><path d="M 478.145,402.241L 320,138.729L 320,32 l 16,0 c 8.8,0, 16-7.2, 16-16s-7.2-16-16-16L 176,0 c-8.8,0-16,7.2-16,16s 7.2,16, 16,16l 16,0 l0,106.729 L 33.856,402.241C-2.365,462.608, 25.6,512, 96,512l 320,0 C 486.4,512, 514.365,462.608, 478.145,402.241z M 120.519,320L 224,147.531L 224,32 l 64,0 l0,115.531 L 391.482,320L 120.519,320 z"></path></g></svg>