<?xml version="1.0" encoding="utf-8"?> <!-- Generator: IcoMoon.io --> <!DOCTYPE svg PUBLIC "-//W3C//DTD SVG 1.1//EN" "http://www.w3.org/Graphics/SVG/1.1/DTD/svg11.dtd"> <svg width="512" height="512" viewBox="0 0 512 512" xmlns="http://www.w3.org/2000/svg" xmlns:xlink="http://www.w3.org/1999/xlink" fill="#000000"><g><path d="M 368,0L 144,0 c-26.4,0-48,21.6-48,48l0,416 c0,26.4, 21.6,48, 48,48l 224,0 c 26.4,0, 48-21.6, 48-48L 416,48 C 416,21.6, 394.4,0, 368,0z M 192,24 l 128,0 l0,16 L 192,40 L 192,24 z M 256,480c-17.673,0-32-14.327-32-32s 14.327-32, 32-32s 32,14.327, 32,32S 273.673,480, 256,480z M 384,384L 128,384 L 128,64 l 256,0 L 384,384 z"></path></g></svg>