<?xml version="1.0" encoding="utf-8"?> <!-- Generator: IcoMoon.io --> <!DOCTYPE svg PUBLIC "-//W3C//DTD SVG 1.1//EN" "http://www.w3.org/Graphics/SVG/1.1/DTD/svg11.dtd"> <svg width="512" height="512" viewBox="0 0 512 512" xmlns="http://www.w3.org/2000/svg" xmlns:xlink="http://www.w3.org/1999/xlink" fill="#000000"><g><path d="M 160,96 L 512,0 L 512,32 L 512,96 L 512,368 C 512,412.183 461.855,448 400,448 C 338.145,448 288,412.183 288,368 C 288,323.817 338.145,288 400,288 C 417.179,288 433.451,290.766 448,295.703 L 448,130.909 L 224,192 L 224,432 C 224,476.183 173.856,512 112,512 C 50.144,512 0,476.183 0,432 C 0,387.817 50.144,352 112,352 C 129.179,352 145.451,354.766 160,359.703 L 160,192 L 160,96 Z"></path></g></svg>