<?xml version="1.0" encoding="utf-8"?> <!-- Generator: IcoMoon.io --> <!DOCTYPE svg PUBLIC "-//W3C//DTD SVG 1.1//EN" "http://www.w3.org/Graphics/SVG/1.1/DTD/svg11.dtd"> <svg width="512" height="512" viewBox="0 0 512 512" xmlns="http://www.w3.org/2000/svg" xmlns:xlink="http://www.w3.org/1999/xlink" fill="#000000"><g><path d="M 448,128L 448,64 L0,64 l0,352 c0,17.673, 14.327,32, 32,32l 432,0 c 26.511,0, 48-21.489, 48-48L 512,128 L 448,128 z M 416,416L 32,416 L 32,96 l 384,0 L 416,416 zM 64,160L 384,160L 384,192L 64,192zM 256,224L 384,224L 384,256L 256,256zM 256,288L 384,288L 384,320L 256,320zM 256,352L 352,352L 352,384L 256,384zM 64,224L 224,224L 224,384L 64,384z"></path></g></svg>