<?xml version="1.0" encoding="utf-8"?>
<!-- Generator: Adobe Illustrator 13.0.1, SVG Export Plug-In . SVG Version: 6.00 Build 14948)  -->
<!DOCTYPE svg PUBLIC "-//W3C//DTD SVG 1.0//EN" "http://www.w3.org/TR/2001/REC-SVG-20010904/DTD/svg10.dtd">
<svg version="1.0"
	 id="svg6797" xmlns:svg="http://www.w3.org/2000/svg" inkscape:version="0.44" xmlns:dc="http://purl.org/dc/elements/1.1/" sodipodi:version="0.32" sodipodi:docbase="C:\Documents and Settings\Joan Borràs Comes\Escritorio" xmlns:sodipodi="http://sodipodi.sourceforge.net/DTD/sodipodi-0.dtd" xmlns:inkscape="http://www.inkscape.org/namespaces/inkscape" sodipodi:docname="Silueta dels Països Catalans.svg" xmlns:cc="http://web.resource.org/cc/" xmlns:rdf="http://www.w3.org/1999/02/22-rdf-syntax-ns#"
	 xmlns="http://www.w3.org/2000/svg" xmlns:xlink="http://www.w3.org/1999/xlink" x="0px" y="0px" width="512px"
	 height="512px" viewBox="0 0 512 512" enable-background="new 0 0 512 512" xml:space="preserve">

<g transform="translate(-128.1453,-261.4516)" inkscape:groupmode="layer" inkscape:label="Capa 1"> <path id="path7341" stroke-width="0.1" d="M468.464,314.925c-2.279,1.331-6.151,2.949-6.953,6.486 c-3.106,1.561-5.913-0.35-9.781,0.233c-2.565-0.886-5.348-1.162-7.551-0.726c-2.731,1.822-8.407-1.462-10.17,0.726 c-1.146,1.318,1.574,2.547,0.985,5.241c1.158,1.777,1.27,4.532-1.582,5.241c-0.95,1.684-4.668-0.808-4.593,1.972 c-1.512,1.221-3.475,2.147-4.982,3.01c-0.919-1.695-3.88-1.858-5.37-1.012c-2.113-0.891-4.804,1.523-6.564,0.26 c-0.88,2.07-1.384,3.642-3.606,3.996c-1.353,1.15-3.638-1.159-3.581,1.738c-1.9,1.245-2.068,0.39-4.385,0.752 c-2.305,1.344-4.251-0.346-6.563-0.752c0.609-1.85,1.279-2.472-1.012-1.998c-1.085-1.594-3.432,0.321-4.981-1.245 c-3.426,1.647-3.876-3.497-7.369-1.738c-1.334,1.292-3.008-1.406-3.58,1.245c1.109,1.467-0.729,4.021-2.776,1.998 c-0.628-2.045-1.506-4.55-2.802-5.241c0.575-2.022-3.275-1.8-2.387-3.736c-2.295-0.478-4.731,0.29-6.564,0.493 c-1.459-3.126-5.376,2.444-7.187-0.752c-1.21-1.223-1.046-4.319-3.788-4.488c-0.577-1.55-4.042,0.252-5.578-1.246 c-1.911,0.996-3.32-2.692-5.163,0.259c-3.166-2.508-6.71-4.501-10.56-4.229c-2.637-1.575-4.356-2.5-6.59-0.493 c-0.746,1.741,0.646,4.055-1.375,5.215c3.41,0.683-2.747,2.234,0.986,2.75c0.715,2.38,2.059,3.39,0.208,4.982 c-1.541,0.167-4.563-1.846-5.578-0.493c-2.097-0.766-3.891-0.319-5.994,0.233c-2.255-1.208-4.689,0.692-3.788,2.491 c-0.575,2.433-2.589,3.781-1.972,6.979c0.024,1.268,1.606,2.568,1.193,4.229c-0.231,2.195,0.223,2.023,2.18,4.255 c1.389,2.118,5.83,1.492,3.788,5.215c-1.961-0.845-4.487,1.344-3.995,4.488c-3.217,2.654-1.345,1.213,0.415,3.477 c1.649,1.43,2.47,4.051-0.805,3.996c0.098,2.111-0.965,5.669,0.597,5.994c-0.447,3.58-3.002,5.455-6.383,5.474 c0.936,3.385-0.867,5.333-3.191,5.968c2.087,2.488-2.805,1.878-0.778,3.996c0.719,1.951-2.949,2.181-2.594,4.488 c-0.426,1.305,3.186,1.29,0.986,3.477c-0.042,1.094-0.208,4.721,2.206,3.736c-0.164,1.204,1.454,3.603,1.79,3.736 c-3.156,1.785,1.297,3.177,0.389,5.993c3.567,3.386-4.404,1.594-2.387,3.477c0.735,1.166,1.77,2.134,1.194,3.996 c1.067,0.688-3.815-0.641-4.177-0.752c-1.948,0.907-1.405,2.68-3.788,3.243c-1.156,1.846,3.887,2.823,0.986,4.229 c-0.888,2.339-5.355,4.081-7.369,4.229c1.731,1.951,2.975,4.031,1.609,6.979c-2.382,0.418-0.854,4.425-3.191,1.738 c-1.039-0.231-3.849-4.94-4.385-1.245c-1.018,2.024-4.893,3.74-1.401,4.981c-0.423,2.919,4.473,2.277,5.993,2.984 c2.294-0.646,2.581,4.222,0.182,3.009c0.946,2.006-0.624,2.644,0.208,4.463c-1.195,1.861,2.027,7.434-1.583,6.486 c-1.624,1.925-3.747,5.34-5.189,3.736c-1.417,2.807,2.421,5.253,2.594,7.732c-1.027,1.832-0.411,4.493-2.387,5.734 c-3.53,2.016-0.602,4.064-5.189,2.231c-2.076,1.693-4.829-1.766-4.385,1.738c-0.239,2.594,0.043,4.159-3.399,3.243 c-1.873,0.032-4.715-0.521-6.175-0.493c-2.403,2.072,3.845,1.984,4.8,3.736c-0.297,2.265-5.236,2.55-1.194,3.736 c2.892,1.438,3.138,1.912,1.375,3.996c-1.692,1.496-0.907,4.071-1.791,5.475c-2.439,0.074-4.559,4.288-5.578,0.986 c-3.329-0.412-3.35,1.781-3.373,3.996c-0.246,2.09,3.066,1.647,3.788,2.231c3.157-2.581,0.911,3.579,1.972,4.488 c-0.774,2.433-0.509,3.392,1.193,4.722c0.125,2.031-1.018,2.075-3.762,2.75c-3.029,2.761,5.01,5.912,2.984,7.965 c-2.408,0.103-3.589,2.611-4.8,4.255c-1.272,1.151-1.662-0.183-2.776,1.738c3.506,2.378-3.28,5.328-5.371,4.723 c-2.15,2.415-5.146-4.063-5.189,1.738c-0.989,2.7-0.534,5.264-1.998,6.979c-2.013-0.419-2.953,3.314-1.998,5.24 c-1.609-1.505-3.464,3.202-6.175,1.998c-1.416,1.258-3.741-1.251-3.788,1.998c0.514,3.402-5.886,2.279-4.774,5.475 c-0.862,1.754,1.066,4.672,2.802,6.227c-2.853,0.599-4.561,4.396-7.369,1.245c-0.481-1.745,0.933-2.498-0.415-4.229 c1.641-1.05-0.39-4.849-1.193-3.503c-2.655-1.915-4.694-1.956-7.369-1.479c-2.265-1.193-3.158,1.271-4.177,0.233 c-1.354,1.162-1.249,0.103-2.802,0.492c-3.787,0.554-4.909,2.688-3.373,4.748c0.193,5.331-1.578,10.156-5.189,14.452 c1.279,1.918,0.457,6.927-3.373,5.215c-4.75-3.639-7.971,4.688-8.977,8.225c-2.191,0.455-2.995,1.893-3.788,2.257 c1.936,0.203,0.475,2.91,1.012,4.723c-0.992-0.203,0.134,0.873-0.623,2.75c-1.934-0.026-0.178,1.524-0.182,2.491 c1.529-1.334,0.163,2.422,1.791,0.492c0.489,0.479-0.799,2.923,1.193,1.246c-0.559,1.921,0.09,0.928,1.193,0.752 c0.462,1.589-2.084,0.941,0.208,1.738c-0.83,2.728,0.968-0.1,1.375,0.26c0.035,2.856,0.337-2.466,1.401,0.233 c1.794-1.228-1.331,1.722,1.193,0.26c0.12,1.698,1.458,0.446,2.387,2.23c1.299,1.297,2.594-1.053,3.399,0.753 c1.352,0.038,3.813,0.454,3.788,0.986c1.225,0.179,1.786,0.522,2.595-0.234c1.927,1.056,3.929,1.24,2.179,4.723 c-0.119,4.045-1.132,7.558-3.788,10.715c-1.216,3.31-4.568,7.655,0.208,9.472c2.306,2.487,3.912,6.673,6.382,7.965 c3.481-0.063,6.97-0.604,9.548-1.479c3.137-0.139,1.451,3.396,4.177,4.722c-1.7,3.562,1.796,8.854-2.387,9.963 c0.484,2.9,4.905,6.294,0.804,8.718c-1.244,2.033-7.187-0.563-4.385,2.49c-0.103,2.727,2.923,8.146-2.906,6.279 c-4.554-0.815-5.036,1.644-0.286,1.945c0.37,1.2-4.514,2.104-3.191,4.489c-1.332,2.507-5.104,4.665-7.757,4.229 c-3.133,0.393,0.642,3.549,1.193,5.734c-2.69,2.399-3.868,4.34-0.389,5.215c1.604,2.866,4.589-2.912,5.578,0 c2.053-1.207,3.917-1.58,6.175,0c1.053-0.784,2.892-1.992,3.373-1.738c2.743,5.137,0.158,10.717-2.594,14.711 c-1.533,4.331,1.969,8.434,4.203,10.949c2.465,5.461,6.245,11.496,11.338,13.466c2.772,2.157,2.497-2.608,3.01-3.996 c1.808-1.304,1.756-0.966,2.387-3.477c0.894-0.862,1.21-3.406,2.387-2.75c2.841-0.391,1.232-5.257,1.998-8.978 c0.129-4.276,2.013-10.397,7.55-8.951c3.98-1.1-0.36-6.56,1.193-9.963c0.676-2.742,2.865-2.88,4.981-4.488 c1.755,1.953,2.952,0.918,2.206-1.998c0.549-3.543,2.765-4.995,5.786-6.72c2.492-2.319,5.918-2.644,8.951-3.995 c1.417,0.036,2.608-2.518,4.981-1.479c0.736,2.448,4.223-2.214,3.788-2.75c-1.529-2.271,3.474-6.414,5.578-5.241 c0.665-1.679,3.005-0.445,3.581-0.233c-1.403-2.174,1.983-4.187,4.177-4.488c0.593,0.872,1.444-2.721,3.01-3.243 c0.403-0.24,3.938-0.424,2.387-1.738c0.366-1.961-2.659-0.958-2.802-3.503c0.036-1.19,1.76-1.126-0.779-2.231 c-1.457-1.316-4.012-1.86-5.396-3.243c-3.486-0.99-6.781-0.246-9.548-3.477c-2.339-2.108-5.759-6.431-6.979-8.225 c-2.028-3.441-4.525-8.743-5.578-12.947c-0.669-0.923,0.908-2.86,1.401-3.01c-3.045-6.282-7.522-14.377-7.576-21.172 c0.982-1.087,1.553-2.447,0.804-1.997c-1.118-5.718,3.524-7.788,4.177-12.688c2.676-2.516,3.542-3.155,4.177-6.979 c1.573-5.116,4.603-7.944,7.576-13.206c2.844-1.71,6.06-5.03,6.175-9.211c1.801-2.486,2.237-7.427,6.564-7.472 c2.232-0.799,2.379-2.677,3.606-5.501c1.083-3.712,3.23-5.588,6.772-6.953c0.438-3.822,3.659-4.615,5.371-7.238 c0.79-1.864,2.804-4.138,3.788-4.981c-0.026-1.029,1.216-4.467,2.594-5.968c2.008-3.538,4.225-4.852,5.371-9.729 c1.238-1.972,3.945-5.271,5.578-6.46c2.119,1.181,6.309-2.763,9.159-1.012c-0.969,3.39-5.158,2.73-4.385,3.502 c-2.714,0.378-3.831,1.15-5.163,1.479c-0.918,1.985,5.408,2.373,6.771-0.233c1.985-4.819,6.242-6.911,10.56-8.977 c2.414-2.575,1.27-5.341-1.609-3.736c-1.48-1.517-5.389-7.097-6.356-4.722c4.045,0.281,2.752,3.181-0.415,1.479 c-2.898-1.289-2.433-3.77,0-4.489c0.644-1.98,3.819-3.132,4.385-4.722c2.394-2.199,4.243-7.031,8.77-9.211 c1.925-4.187,6.4-5.595,8.977-6.227c2.96-0.704,5.705-1.033,6.953,0.986c0.388-1.93,2.578-4.624,3.788-3.996 c0.46-0.671,1.075-0.38,1.791-0.727c2.582-1.812,6.192-1.477,8.977-1.764c4.164-3.265,10.521-4.572,15.125-4.981 c2.149,0.271,4.519-1.683,7.395-1.479c1.132-1.122,4.806-1.587,6.175-2.257c2.541,0.943,4.892-1.732,6.772-1.738 c4.841-1.267,14.616-0.268,15.723-7.213c-2.312,1.834,1.595-1.591,1.012-1.764c0.765-1.63,0.62,0.002,1.973-2.231 c1.812-1.406,3.687-7.068,7.395-6.979c4.639-0.649,9.675-6.232,13.544-7.213c4.308-2.349,11.155-4.532,16.138-6.979 c2.461-1.085,1.649-2.737,3.788-2.983c0.632-1.817,5.651-1.455,6.771-2.75c1.983-0.333,3.668-4.297,5.76-4.488 c1.927-0.734,2.473-0.689,3.996-2.724c0.795-2.299,2.438-4.486,4.592-3.736c1.218-1.679,3.262-1.193,3.373-3.503 c2.036-0.363,1.269-2.236,2.205-3.243c-0.402-1.584,2.527-3.278-0.415-3.969c-0.87-0.423-1.979-6.762,0-6.979 c-0.303-1.285-1.981-3.82-2.595-3.996c0.02-1.604-2.362-0.073-2.775-1.738c-2.284-1.788-2.086-11.011,2.775-11.468 c0.081,1.433,1.697,1.578,3.191,2.75c0.415-2.769,1.521-0.476,2.984-0.752c-2.385-0.974,2.93-1.051,1.012-3.243 c0.027-0.827,1.639-0.179,0.597-1.245c-0.464-0.99,1.382-1.143,1.79-1.998c0.169-0.36-2.51-1.287-3.58-1.479 c-1.381,1.202-1.691-2.221-3.606-0.752c-0.785,1.461-1.394-0.369-2.776-1.246c-0.655-0.867-0.349-2.195-0.39-2.491 c-0.688-0.704,1.003-2.537,0.182-3.243c1.853-0.782-0.583-2.023-0.597-3.243c-0.486-1.345-2.5-1.092-1.375-2.724 c-1.72,0.262,1.54-2.234-1.401-1.505c-1.611-0.993-5.221-0.911-4.385-5.215c-1.494-5.618-0.178-12.481-0.597-18.707 c1.684-3.459-3.455-5.163-6.175-5.708C472.25,317.675,470.668,315.073,468.464,314.925z M192.535,540.39 c-3.314,0.528,0.279,5.781-3.373,6.227c-1.183,1.156-1.632-1.375-3.399,0c-1.772-1.05-5.083-1.165-2.984,1.479 c3.465,0.626,1.073,3.471,3.581,5.5c0.212,5.19,5.769,1.739,8.562,4.463c3.861-0.041,6.554-1.058,9.574-2.231 c3.741-0.57,3.18-4.571,0.597-5.475c-2.073-1.243-3.433-2.7-6.564-1.764c-2.002-0.065-3.409-0.759-2.595-2.984 C193.749,545.609,192.832,541.941,192.535,540.39z M551.178,550.483c-0.066,0.016-0.15,0.061-0.233,0.104 c1.096,1.523-1.686,2.483-2.18,2.751c-1.365-1.449-2.673-0.152-4.385-0.26c-0.539,0.894-2.152-0.634-3.191-0.26 c-1.339-0.135-1.287,2.353-2.595,0c-0.683,0.331-3.318,0.805-4.566,0.52c-0.868,1.743-3.322,2.436-1.998,4.722 c1.639-0.662,2.366,0.829,1.998,3.243c-0.902,1.405-1.065,3.464,1.193,2.983c3.289-0.158,2.926,0.023,5.76-0.985 c2.076-0.384,3.351,0.719,5.397,0.985c3.438,1.098,5.285,4.19,7.965,4.748c1.321,0.546,3.05,2.201,4.774,3.218 c1.188-0.099,3.858,2.669,5.785,0.519c1.422-2.227,0.814-5.343-1.4-5.5c-0.854-0.777-1.58-0.634,0.207-0.753 c1.703,0.145,1.603,3.221,3.373,1.505c-2.217,0.172-0.299-1.102-2.18-2.231c-0.999-1.559-1.186-2.886-1.193-3.995 c-1.76-0.535-1.121-2.34-1.012-3.477c-0.668-1.386-2.901,0.768-3.58-1.505c-0.804,2.477-0.203-3.252-1.583-0.986 c-0.49,0.372-1.461-1.229-1.401-1.245c1.065-1.721-0.52-3.069-1.79-1.998c1.669,1.952-2.03,4.562-0.39,0.753 c0.387-1.932-1.398,0.881-1.997,0.492C551.204,553.012,552.165,550.249,551.178,550.483z M489.792,561.042 c-1.777,0.408-2.729,3.197-4.774,2.491c0.367-0.756-3.183,2.466-2.595-0.233c-1.76,0.125-3.267,0.274-4.773,1.972 c-0.898,0.437-2.85-1.662-3.606,0.752c-2.36,0.081-3.301,1.934-5.163,2.491c-1.229,1.335-2.104,0.914-3.398,1.012 c0.414,0.979-2.593-0.108-1.791,1.479c-1.052,1.268-3.155,0.683-4.385,2.491c-1.993,0.84-0.062,2.137-2.387,1.245 c-0.312,2.073-1.942,3.037-2.802,3.01c-0.592,0.429-1.817,2.383-3.166,3.736c-2.099,1.854-3.278,0.958-5.188,2.231 c-1.309,2.028-3.806,3.334-5.578,4.488c-1.489,2.062-4.951,1.313-4.981,4.229c0.188,1.085,0.562,3.58,2.802,2.983 c-1.239,1.311-2.378,1.389,0,1.245c-0.53,2.858,2.597-2.509,2.18,0.753c1.794-1.545,3.032-0.422,3.58,1.012 c-2.486,0.036-0.286,1.695,0,1.972c0.052,2.387,1.065,0.861,2.387,2.517c1.548,0.042,0.053-1.555,1.609-2.517 c-0.27-2.231,0.913-1.536,0.182-2.725c1.736-1.12,3.723-0.739,4.385-2.49c2.429,1.667,0.553-2.946,3.787-1.012 c1.646,0.452,2.932,2.341,4.982,3.243c2.848,2.338-2.744,3.893,0.207,5.733c0.847,2.012-0.694,5.532,2.387,6.227 c0.56,1.878,2.59,1.511,3.788,1.739c1.569-0.984,4.701,0.004,5.578,0.519c1.768-1.773,4.348-0.406,4.981,1.738 c-1.157,2.437,2.255,0.653,1.998,3.243c1.188,0.977,2.076,3.567,3.97,1.738c0.961-2.325,3.471-3.368,4.593-4.748 c1.789,0.785,2.275-0.58,2.983-1.738c2.352-0.669,0.556-0.751,2.595-0.752c-0.518-0.879,1.482-1.648,1.79-4.229 c0.754-0.013-0.265-2.021,0.597-0.986c0.944,1.235,0.278-4.842,1.79-5.24c0.037-2.264,3.462-4.334,2.984-4.723 c2.615-0.056,1.403-2.955,4.203-3.01c-2.14-0.585-0.775-5.35,0.985-4.722c1.836,1.087,1.154-2.597,2.595-1.998 c-0.277-1.581-0.499-2.198,0.39-4.229c2.508-1.061-1.796-0.224-0.39-2.258c0.413-1.106-2.298-0.103-3.191-1.972 c-0.96,0.46-3.66-2.114-4.385-2.257c-0.63,1.602-1.585,3.158-3.398,3.243c-1.693,2.659-5.372,0.853-7.161-0.493 c-2.553-0.477-6.379-4.928-3.373-7.239c0.499,1.515,4.279-0.121,3.762-1.738c-0.967-1.14,2.035-3.424-0.778-1.738 c-1.803,1.663-4.008,1.454-4.981,1.998c-2.91-1.177-1.513-5.256,0.39-3.995c1.209-0.825,1.734-2.322,2.595-1.246 c0.765-0.885,4.903-1.818,3.97-3.243C491.254,561.877,490.739,561.683,489.792,561.042z M476.377,625.309 c-0.092-0.001-0.207,0.002-0.337,0.026C475.013,628.023,477.758,625.336,476.377,625.309z M475.236,627.333 c0.968,2.269-2.151-0.254-0.778,1.738c-1.074-1.458-1.626-0.918-1.012,0.492c0.812,1.845,2.838,0.824,2.802-0.985 C477.799,628.943,476.819,627.255,475.236,627.333z M380.586,631.277c-0.201-0.012-0.462,0.007-0.778,0.025 c0.143,1.082-0.673,0.029-0.778,1.505c-1.415-0.817-1.083-0.507-2.205,0c-1.885,0.35-1.553,1.993-3.191,0.753 c-0.758,2.361-2.438-0.287-2.984,2.231c-1.405-1.006-1.459-0.579-2.179,0.26c-0.805,1.068-4.807,2.244-3.191,4.229 c-2.642,1.68,2.764,3.367-0.597,3.243c-1.198,0.009-3.313,0.522-3.996,0c-2.146,1.48,1.764,2.456,0,3.736 c-1.436,1.168-0.797,4.248,1.012,4.981c0.732,1.864,1.354-2.391,3.373-0.753c0.979-0.169,0.092,2.108,1.401,0.493 c0.895,0.801,3.076-1.031,3.788,2.257c-0.591,1.932,1.498-0.75,2.18,0.493c-0.006-1.596-0.367-5.937,1.998-5.475 c0-1.765,0.918-0.839,2.983-1.012c0.46-1.039,1.791-2.095,2.595-2.49c1.589-0.479,0.008-2.455,1.582-3.477 c0.04-0.918,3.426,0.443,2.595-1.739c0.361-0.909,1.99-2.024,2.387-1.764c0.419-1.025-3.151-2.369-1.375-3.971 c1.642-0.352-1.108-2.872-2.595-1.505C380.969,632.169,381.999,631.358,380.586,631.277z M373.452,657.975 c-0.517,1.659,1.436,2.242,0.39,0h-0.208H373.452z M374.438,660.959c-0.062,1.576-1.453,4.328-2.595,2.49 c-1.573,1.237-0.004,2.642-0.805,4.229c0.148,1.682-0.234,4.54,1.816,2.49c1.111-1.898,3.009-4.05,5.371-1.998 c1.662,1.263,3.729,3.127,5.967,1.246c0.683-2.957-1.98-2.864-3.58-1.246c-2.473-0.095-3.034-3.406-4.178-3.969 C375.196,663.726,374.821,662.638,374.438,660.959z"/> </g>
</svg>
