<?xml version="1.0" encoding="utf-8"?> <!-- Generator: IcoMoon.io --> <!DOCTYPE svg PUBLIC "-//W3C//DTD SVG 1.1//EN" "http://www.w3.org/Graphics/SVG/1.1/DTD/svg11.dtd"> <svg width="512" height="512" viewBox="0 0 512 512" xmlns="http://www.w3.org/2000/svg" xmlns:xlink="http://www.w3.org/1999/xlink" fill="#000000"><g><path d="M 426.688,0L 85.344,0 C 38.406,0,0,38.406,0,85.341l0,341.313 C0,473.625, 38.406,512, 85.344,512l 341.34,0 C 473.622,512, 512,473.623, 512,426.652L 512,85.341 C 512,38.406, 473.622,0, 426.688,0z M 256,32c 34.357,0, 66.902,7.745, 96,21.569L 352,197.13 L 195.221,40.351C 214.549,34.914, 234.934,32, 256,32z M 32,256c0-87.944, 50.688-164.037, 124.437-200.693L 213.13,112L 34.643,290.487 C 32.906,279.245, 32,267.729, 32,256z M 128,439.831c-37.342-26.049-66.382-63.174-82.336-106.625L 128,250.87L 128,439.831 z M 256,480 c-34.357,0-66.902-7.745-96-21.569L 160,384 l 279.831,0 C 399.353,442.026, 332.116,480, 256,480z M 458.431,352L 384,352 L 384,72.168 c 58.026,40.479, 96,107.715, 96,183.832C 480,290.357, 472.255,322.902, 458.431,352z"></path></g></svg>