<?xml version="1.0" encoding="utf-8"?> <!-- Generator: IcoMoon.io --> <!DOCTYPE svg PUBLIC "-//W3C//DTD SVG 1.1//EN" "http://www.w3.org/Graphics/SVG/1.1/DTD/svg11.dtd"> <svg width="512" height="512" viewBox="0 0 512 512" xmlns="http://www.w3.org/2000/svg" xmlns:xlink="http://www.w3.org/1999/xlink" fill="#000000"><g><path d="M 352,197.13 L 169.772,14.902 C 196.717,5.264 225.742,0 256,0 C 289.952,0 322.352,6.625 352,18.628 L 352,197.13 ZM 384,352 L 384,34.257 C 460.517,78.521 512,161.246 512,256 C 512,289.952 505.375,322.352 493.372,352 L 384,352 ZM 160,384 L 477.743,384 C 433.479,460.517 350.754,512 256,512 C 222.048,512 189.648,505.375 160,493.372 L 160,384 ZM 213.13,112 L 7.489,317.641 C 2.607,297.896 0,277.254 0,256 C 0,159.309 53.613,75.149 132.726,31.596 L 213.13,112 ZM 128,250.87 L 128,477.743 C 80.702,450.382 42.982,408.319 21.063,357.807 L 128,250.87 Z"></path></g></svg>