<?xml version="1.0" encoding="utf-8"?> <!-- Generator: IcoMoon.io --> <!DOCTYPE svg PUBLIC "-//W3C//DTD SVG 1.1//EN" "http://www.w3.org/Graphics/SVG/1.1/DTD/svg11.dtd"> <svg width="512" height="512" viewBox="0 0 512 512" xmlns="http://www.w3.org/2000/svg" xmlns:xlink="http://www.w3.org/1999/xlink" fill="#000000"><g><path d="M 400,64L 112,64 c-26.51,0-48,21.49-48,48l0,16 l 384,0 l0-16 C 448,85.49, 426.51,64, 400,64zM 316.16,32l 7.058,50.5L 188.782,82.5 l 7.057-50.5L 316.16,32 M 320,0L 192,0 c-13.2,0-25.495,10.696-27.321,23.769l-9.357,66.962 C 153.495,103.804, 162.8,114.5, 176,114.5l 160,0 c 13.2,0, 22.505-10.696, 20.679-23.769l-9.357-66.962C 345.495,10.696, 333.2,0, 320,0L 320,0z M 408,160L 104,160 c-17.6,0-30.696,14.341-29.103,31.869l 26.206,288.263C 102.696,497.659, 118.4,512, 136,512l 240,0 c 17.6,0, 33.304-14.341, 34.897-31.868l 26.205-288.263C 438.696,174.341, 425.6,160, 408,160z M 192,448l-48,0 l-16-224l 64,0 L 192,448 z M 288,448l-64,0 L 224,224 l 64,0 L 288,448 z M 368,448l-48,0 L 320,224 l 64,0 L 368,448z"></path></g></svg>