<?xml version="1.0" encoding="utf-8"?> <!-- Generator: IcoMoon.io --> <!DOCTYPE svg PUBLIC "-//W3C//DTD SVG 1.1//EN" "http://www.w3.org/Graphics/SVG/1.1/DTD/svg11.dtd"> <svg width="512" height="512.5833129882812" viewBox="0 0 512 512.5833129882812" xmlns="http://www.w3.org/2000/svg" xmlns:xlink="http://www.w3.org/1999/xlink" fill="#000000"><g><path d="M 448,512l-384,0 q-26.5,0 -45.25-18.75t-18.75-45.25l0-384 q0-26.5 18.75-45.25t 45.25-18.75l 224,0 l0,64 l-192,0 q-13.5,0 -22.75,9.5t-9.25,22.5l0,320 q0,13.5 9.25,22.75t 22.75,9.25l 320,0 q 13.5,0 22.75-9.25t 9.25-22.75l0-151 l 64-53.5l0,236.5 q0,26.5 -18.75,45.25t-45.25,18.75zM 348,283.5q-6.5,6.5 -17.25,4 t-10.75-9.5l0-86 q-112,0 -192,160l0-32 q0-58 15-102t 41.5-70t 60.5-39t 75-13l0-85 q0-7 10.75-9.75t 17.25,3.75l 157,123q 6.5,6.5 6.5,16t-6.5,16.5z"></path></g></svg>