<svg xmlns="http://www.w3.org/2000/svg" xmlns:xlink="http://www.w3.org/1999/xlink" x="0px" y="0px" width="512px" height="512px" viewBox="0 0 512 512" enable-background="new 0 0 512 512" xml:space="preserve"><g><path fill="#231F20" d="M114.27,230.742c0-68.428,55.672-124.118,124.118-124.118s124.108,55.681,124.108,124.118 c0,10.562-1.442,20.743-3.939,30.534c-6.613-2.873-13.856-4.446-21.394-4.446c-15.104,0-28.696,6.401-38.443,16.539 c-0.698-0.126-1.374-0.295-2.076-0.399c-1.534-38.461-32.992-68.952-71.462-68.952c-26.144,0-49.834,14.039-62.49,36.784 c-5.717-1.404-11.512-2.158-17.293-2.158c-10.58,0-20.761,2.466-30.044,6.778C114.742,240.593,114.27,235.73,114.27,230.742z  M68.532,413.427c-35.749,0-64.844-29.104-64.844-64.86c0-40.36,37.352-72.468,78.921-63.297l2.423,0.533l1.196-2.167 c11.451-20.644,33.2-33.473,56.765-33.473c6.02,0,12.092,0.862,18.064,2.592l2.662,0.78l1.252-2.483 c11.13-21.909,33.286-35.549,57.796-35.549c35.744,0,64.839,29.112,64.839,64.869v3.009l2.995,0.693 c0.187,0.017,0.373,0.061,0.576,0.086c-5.912,8.283-9.578,18.312-10.012,29.203c-26.27,3.828-45.821,26.266-45.821,53.081 c0,20.202,11.247,37.833,27.782,46.974H68.532V413.427z M457.671,415.096H296.253c-26.824,0-48.642-21.827-48.642-48.634 c0-24.986,18.719-45.782,43.528-48.365l2.232-0.524v-2.267c0-26.803,21.813-48.63,48.629-48.63 c18.386,0,34.994,10.233,43.372,26.664l0.924,1.847l2.007-0.572c4.473-1.292,9.036-1.959,13.544-1.959 c17.666,0,33.971,9.63,42.544,25.112l0.915,1.643l1.828-0.403c31.185-6.887,59.18,17.194,59.18,47.464 C506.313,393.269,484.504,415.096,457.671,415.096z"/></g></svg>