<svg xmlns="http://www.w3.org/2000/svg" xmlns:xlink="http://www.w3.org/1999/xlink" x="0px" y="0px"  width="512px" height="512px" viewBox="0 0 512 512" enable-background="new 0 0 512 512" xml:space="preserve"><path d="M447.632,407.77c0,49.25-36.012,88.967-82.146,93.752c-3.092,0.288-6.208,0.479-9.374,0.479H195.975 c-3.171,0-6.3-0.19-9.374-0.479c-46.14-4.785-82.145-44.514-82.145-93.752c0-52.533,40.968-94.23,91.519-94.23h26.668 c9.963,2.122,20.27,3.858,30.95,5.049c11.908,1.33,23.871,2.35,35.54,2.35c23.121,0,44.391-2.65,63.096-7.398h3.884 C406.645,313.539,447.619,355.236,447.632,407.77z M220.901,300.975c10.902,2.49,22.276,4.484,34.085,5.803 c11.674,1.307,23.092,1.939,34.147,1.939c23.061,0,44.403-2.779,62.863-7.742c37.011-9.951,62.226-28.871,64.931-53.005 c3.251-29.079-26.938-57.999-73.968-76.195c-6.871,2.239-14.195,3.559-21.975,3.559h-80.158c-18.447,0-36.459-6.883-51.612-18.018 c-44.741,8.595-76.152,29.202-79.194,56.336C105.99,249.761,153.541,285.619,220.901,300.975z M190.092,141.948 c2.976,2.638,6.092,5.08,9.374,7.288c2.902,1.963,5.902,3.706,8.994,5.276c10.166,5.178,21.196,8.257,32.367,8.257h73.98h6.178 c4.172,0,8.153-0.515,12.012-1.307c4.019-0.828,7.854-2.049,11.509-3.644c26.724-11.662,43.195-42.526,43.195-74.33v-4.772 C387.7,38.398,361.303,12,320.984,12h-80.158c-40.318,0-79.28,26.398-79.28,66.716v4.785 C161.547,105.415,173.104,126.875,190.092,141.948z"/></svg>