<?xml version="1.0" encoding="utf-8"?> <!-- Generator: IcoMoon.io --> <!DOCTYPE svg PUBLIC "-//W3C//DTD SVG 1.1//EN" "http://www.w3.org/Graphics/SVG/1.1/DTD/svg11.dtd"> <svg width="512" height="512" viewBox="0 0 512 512" xmlns="http://www.w3.org/2000/svg" xmlns:xlink="http://www.w3.org/1999/xlink" fill="#000000"><g><path d="M 256,0C 114.615,0,0,114.615,0,256s 114.615,256, 256,256s 256-114.615, 256-256S 397.385,0, 256,0z M 160,256 c0-53.020, 42.98-96, 96-96s 96,42.98, 96,96s-42.98,96-96,96S 160,309.020, 160,256z M 462.99,341.738L 462.99,341.738l-88.71-36.745 C 380.539,289.901, 384,273.355, 384,256s-3.461-33.901-9.72-48.993l 61.063-25.293l 27.647-11.452C 473.944,196.673, 480,225.627, 480,256 C 480,286.373, 473.943,315.327, 462.99,341.738L 462.99,341.738z M 341.739,49.010L 341.739,49.010L 341.739,49.010l-36.745,88.71 C 289.902,131.461, 273.356,128, 256,128s-33.901,3.461-48.993,9.72l-17.23-41.599l-19.515-47.112C 196.673,38.057, 225.628,32, 256,32 C 286.373,32, 315.327,38.057, 341.739,49.010z M 49.010,170.262l 47.112,19.515l 41.599,17.23C 131.462,222.099, 128,238.645, 128,256 s 3.461,33.901, 9.72,48.993l-88.71,36.745C 38.057,315.327, 32,286.373, 32,256C 32,225.627, 38.057,196.673, 49.010,170.262z M 170.262,462.99l 11.452-27.647l 25.293-61.063C 222.099,380.539, 238.645,384, 256,384s 33.901-3.461, 48.993-9.72l 36.745,88.71l0,0l0,0 C 315.327,473.942, 286.373,480, 256,480C 225.628,480, 196.673,473.943, 170.262,462.99z"></path></g></svg>