<?xml version="1.0" encoding="utf-8"?> <!-- Generator: IcoMoon.io --> <!DOCTYPE svg PUBLIC "-//W3C//DTD SVG 1.1//EN" "http://www.w3.org/Graphics/SVG/1.1/DTD/svg11.dtd"> <svg width="512" height="512" viewBox="0 0 512 512" xmlns="http://www.w3.org/2000/svg" xmlns:xlink="http://www.w3.org/1999/xlink" fill="#000000"><g><path d="M 400,0L 80,0 C 53.6,0, 32,21.6, 32,48l0,416 c0,26.4, 21.6,48, 48,48l 320,0 c 26.4,0, 48-21.6, 48-48L 448,48 C 448,21.6, 426.4,0, 400,0z M 240,496 c-8.836,0-16-7.163-16-16s 7.164-16, 16-16s 16,7.163, 16,16S 248.836,496, 240,496z M 384,448L 96,448 L 96,64 l 288,0 L 384,448 z"></path></g></svg>