<?xml version="1.0" encoding="utf-8"?> <!-- Generator: IcoMoon.io --> <!DOCTYPE svg PUBLIC "-//W3C//DTD SVG 1.1//EN" "http://www.w3.org/Graphics/SVG/1.1/DTD/svg11.dtd"> <svg width="512" height="512" viewBox="0 0 512 512" xmlns="http://www.w3.org/2000/svg" xmlns:xlink="http://www.w3.org/1999/xlink" fill="#000000"><g><path d="M 426.69,0L 85.344,0 C 38.405,0, 0.001,38.407, 0.001,85.343l0,341.313 C 0.001,473.625, 38.405,512, 85.344,512L 426.69,512 C 473.625,512, 512,473.625, 512,426.656L 512,85.342 C 511.996,38.407, 473.621,0, 426.69,0z M 365.858,412.344 c-15.076,7.094-28.764,12.094-41,14.969c-12.248,2.845-25.48,4.279-39.701,4.279c-16.156,0-25.688-2.029-38.094-6.094 c-12.404-4.094-23-9.936-31.75-17.436c-8.779-7.564-14.843-15.599-18.233-24.097c-3.392-8.502-5.078-20.846-5.078-37.002L 192.002,223.062 l-47.998,0 l0-50.033 c 13.872-4.5, 29.968-10.967, 39.842-19.375c 9.92-8.436, 17.859-18.529, 23.842-30.342 c 6.002-11.783, 10.125-26.813, 12.376-45.033l 50.25,0 L 270.314,160 L 352,160 l0,63.063 l-81.689,0 l0,90.594 c0,20.5-0.264,32.313, 1.908,38.125 c 2.156,5.78, 7.563,11.78, 13.451,15.25c 7.828,4.688, 16.752,7.030, 26.813,7.030c 17.893,0, 35.689-5.813, 53.375-17.438L 365.858,412.344 L 365.858,412.344z"></path></g></svg>