<?xml version="1.0" encoding="utf-8"?> <!-- Generator: IcoMoon.io --> <!DOCTYPE svg PUBLIC "-//W3C//DTD SVG 1.1//EN" "http://www.w3.org/Graphics/SVG/1.1/DTD/svg11.dtd"> <svg width="512" height="512" viewBox="0 0 512 512" xmlns="http://www.w3.org/2000/svg" xmlns:xlink="http://www.w3.org/1999/xlink" fill="#000000"><g><path d="M 426.655,0L 85.345,0 C 38.406,0,0,38.408,0,85.346l0,341.31 C0,473.625, 38.406,512, 85.345,512l 341.31,0 C 473.594,512, 512,473.625, 512,426.655L 512,85.346 C 512,38.408, 473.594,0, 426.655,0z M 406.434,219.063 c-16.979,95.648-111.854,176.648-140.39,195.155c-28.544,18.503-54.577-7.411-64.019-26.997 c-10.808-22.354-43.205-143.47-51.684-153.51c-8.482-10.019-33.938,10.040-33.938,10.040l-12.346-16.188 c0,0, 51.691-61.724, 91.020-69.439c 41.702-8.183, 41.64,64.033, 51.67,104.121c 9.7,38.782, 16.22,60.976, 24.688,60.976 c 8.485,0, 24.691-21.631, 42.426-54.785c 17.768-33.188-0.769-62.505-35.486-41.646C 292.268,143.464, 423.406,123.43, 406.434,219.063z"></path></g></svg>