<?xml version="1.0" encoding="utf-8"?> <!-- Generator: IcoMoon.io --> <!DOCTYPE svg PUBLIC "-//W3C//DTD SVG 1.1//EN" "http://www.w3.org/Graphics/SVG/1.1/DTD/svg11.dtd"> <svg width="512" height="512" viewBox="0 0 512 512" xmlns="http://www.w3.org/2000/svg" xmlns:xlink="http://www.w3.org/1999/xlink" fill="#000000"><g><path d="M 359.765,415.765c-6.143,0-12.284-2.343-16.971-7.029c-9.372-9.372-9.372-24.568,0-33.941 c 65.503-65.503, 65.503-172.085,0-237.588c-9.372-9.373-9.372-24.569,0-33.941c 9.372-9.371, 24.569-9.372, 33.941,0 C 417.532,144.062, 440,198.304, 440,256c0,57.695-22.468,111.938-63.265,152.735C 372.049,413.422, 365.907,415.765, 359.765,415.765zM 274.51,370.51c-6.143,0-12.284-2.343-16.971-7.029c-9.373-9.373-9.373-24.568,0-33.941 c 40.55-40.55, 40.55-106.529,0-147.078c-9.373-9.373-9.373-24.569,0-33.941c 9.373-9.372, 24.568-9.372, 33.941,0 c 59.265,59.265, 59.265,155.696,0,214.961C 286.794,368.167, 280.652,370.51, 274.51,370.51zM 200.666,39.334 C 213.5,26.5 224,30.85 224,49 L 224,463 C 224,481.15 213.5,485.499 200.666,472.665 L 80,352 L 0,352 L 0,160 L 80,160 L 200.666,39.334 Z"></path></g></svg>