<?xml version="1.0" encoding="utf-8"?> <!-- Generator: IcoMoon.io --> <!DOCTYPE svg PUBLIC "-//W3C//DTD SVG 1.1//EN" "http://www.w3.org/Graphics/SVG/1.1/DTD/svg11.dtd"> <svg width="512.0010375976562" height="512" viewBox="0 0 512.0010375976562 512" xmlns="http://www.w3.org/2000/svg" xmlns:xlink="http://www.w3.org/1999/xlink" fill="#000000"><g><path d="M 418.842,433.901c-5.782,0-11.561-2.205-15.973-6.616c-8.821-8.822-8.821-23.123,0-31.944 C 444.111,354.098, 466.824,299.266, 466.824,240.941c0-58.324-22.713-113.157-63.955-154.399c-8.821-8.822-8.821-23.124,0-31.944 c 8.821-8.821, 23.124-8.821, 31.944,0c 49.774,49.775, 77.187,115.953, 77.187,186.344c0,70.392-27.413,136.568-77.187,186.344 C 430.404,431.696, 424.623,433.901, 418.842,433.901zM 338.602,391.308c-5.782,0-11.561-2.205-15.973-6.616c-8.821-8.821-8.821-23.123,0-31.944 c 61.65-61.65, 61.65-161.962,0-223.612c-8.821-8.822-8.821-23.124,0-31.944c 8.821-8.82, 23.124-8.821, 31.944,0 C 392.971,135.588, 414.118,186.639, 414.118,240.941c0,54.301-21.146,105.353-59.544,143.751C 350.164,389.103, 344.383,391.308, 338.602,391.308zM 258.362,348.715c-5.782,0-11.561-2.205-15.973-6.616c-8.822-8.822-8.822-23.123,0-31.944 c 38.165-38.165, 38.165-100.263,0-138.426c-8.822-8.822-8.822-23.124,0-31.944c 8.822-8.821, 23.123-8.821, 31.944,0 c 55.779,55.779, 55.779,146.537,0,202.316C 269.924,346.51, 264.143,348.715, 258.362,348.715zM 188.862,37.020 C 200.941,24.941 210.824,29.035 210.824,46.118 L 210.824,435.765 C 210.824,452.847 200.941,456.94 188.862,444.861 L 75.294,331.294 L 0,331.294 L 0,150.588 L 75.294,150.588 L 188.862,37.020 Z"></path></g></svg>