<?xml version="1.0" encoding="utf-8"?> <!-- Generator: IcoMoon.io --> <!DOCTYPE svg PUBLIC "-//W3C//DTD SVG 1.1//EN" "http://www.w3.org/Graphics/SVG/1.1/DTD/svg11.dtd"> <svg width="531.4450073242188" height="512" viewBox="0 0 531.4450073242188 512" xmlns="http://www.w3.org/2000/svg" xmlns:xlink="http://www.w3.org/1999/xlink" fill="#000000"><g><path d="M 256,79.362 L 83.583,448 L 428.417,448 L 256,79.362 Z M 256,0 L 256,0 C 267.035,0 278.070,7.441 286.442,22.324 L 504.978,457.88 C 521.723,487.646 507.478,512 473.327,512 L 38.673,512 C 4.521,512 -9.722,487.646 7.021,457.88 L 225.558,22.324 C 233.93,7.441 244.965,0 256,0 ZM 224,384A32,32 2520 1 0 288,384A32,32 2520 1 0 224,384zM 256,192 C 273.673,192 288,206.327 288,224 L 278,320 L 234,320 L 224,224 C 224,206.327 238.327,192 256,192 Z"></path></g></svg>