<svg xmlns="http://www.w3.org/2000/svg" xmlns:xlink="http://www.w3.org/1999/xlink" x="0px" y="0px"  width="512px" height="512px" viewBox="-211 -219.001 512 512" enable-background="new -211 -219.001 512 512"  xml:space="preserve"><path d="M-147.895-58.501c45.815-39.343,82.006-70.449,180.193-14.968c47.169,26.646,85.218,36.706,116.894,36.701 c55.457,0,91.39-30.854,122.467-57.559c11.083-9.513,12.507-26.406,3.186-37.728c-9.326-11.324-25.863-12.786-36.945-3.257 c-45.812,39.359-81.996,70.455-180.217,14.962c-129.743-73.29-190.512-21.081-239.343,20.859 c-11.075,9.519-12.507,26.409-3.183,37.733C-175.523-50.439-158.983-48.978-147.895-58.501z M237.896-1.401 C192.085,37.95,155.9,69.051,57.682,13.564C-72.061-59.732-132.83-7.526-181.661,34.419c-11.075,9.526-12.507,26.417-3.183,37.726 c9.321,11.318,25.866,12.783,36.949,3.263C-102.08,36.056-65.889,4.958,32.298,60.432c47.169,26.647,85.218,36.711,116.894,36.711 c55.457,0,91.39-30.856,122.467-57.556c11.083-9.526,12.507-26.417,3.186-37.73C265.521-9.475,248.98-10.93,237.896-1.401z  M237.896,132.496C192.085,171.85,155.9,202.948,57.68,147.462c-129.741-73.295-190.511-21.086-239.342,20.858 c-11.075,9.521-12.507,26.418-3.183,37.742c9.321,11.308,25.866,12.771,36.949,3.246c45.815-39.354,82.001-70.441,180.193-14.976 c47.169,26.657,85.217,36.711,116.895,36.711c55.455,0,91.389-30.856,122.466-57.556c11.083-9.516,12.507-26.418,3.186-37.735 C265.518,124.436,248.98,122.98,237.896,132.496z"/></svg>