<svg xmlns="http://www.w3.org/2000/svg" xmlns:xlink="http://www.w3.org/1999/xlink" x="0px" y="0px" width="512px" height="512px" viewBox="0 0 512 512" enable-background="new 0 0 512 512" xml:space="preserve"><g><g><path fill="#231F20" d="M484.35,165.988c-15.882-22.088-40.189-38.499-66.633-45.038c-8.873-2.282-18.128-3.445-27.503-3.445 c-19.27,0-37.198,5.074-51.78,14.622c-23.526,14.808-39.627,39.959-43.054,67.117c-4.51,27.819,7.28,57.355,29.279,73.473 c12.629,9.553,29.199,15.026,45.464,15.026c12.256,0,23.584-3.027,32.72-8.719c24.964-15.025,35.929-47.763,24.444-72.98 c-5.89-12.819-17.427-22.812-30.846-26.7c-3.946-1.163-7.945-1.811-11.919-1.949l-0.479,9.082c3.298,0.24,6.543,0.91,9.663,2.011 c10.507,3.582,19.283,11.856,23.473,22.208c2.1,4.976,3.161,10.382,3.046,15.638c-0.12,5.717-1.102,10.973-3.104,16.482 c-3.955,10.4-11.643,19.5-21.191,25.018c-17.161,10.419-44.495,7.235-62.127-6.974c-17.388-13.836-25.954-36.555-22.332-59.379 c3.005-22.421,16.459-42.974,36.035-55.012c9.281-5.873,20.17-9.699,31.534-11.088c4.719-0.6,11.066-0.693,17.191-0.218 c5.847,0.515,11.755,1.509,17.1,2.863c22.327,5.744,42.826,19.824,56.271,38.699c13.983,18.927,20.602,41.717,19.119,65.98 c-0.981,23.566-9.061,47.311-22.763,66.891c-13.637,19.655-33.271,35.693-55.336,45.175c-10.125,4.435-21.844,7.645-34.819,9.518 c-8.025,1.136-16.646,1.336-27.082,1.491l-294.319,3.911l-49.836,1.943l0.182,9.092l332.636,0.217c3.84,0,7.684,0,11.501,0.04 l7.111,0.044c6.405,0,14.001-0.119,21.707-0.994c13.974-1.727,27.184-5.197,39.218-10.307 c24.946-10.374,47.274-28.254,62.855-50.355c15.754-22.07,25.19-49.072,26.562-75.946 C508.271,215.917,500.25,187.681,484.35,165.988z"/></g><g><path fill="#231F20" d="M182.578,348.872c1.109-0.044,2.446-0.062,3.729-0.062l9.1,0.105c2.552,0.045,4.945,0.08,7.346,0.08 c4.679,0,10.88-0.124,17.445-1.078c12.745-2.082,24.818-7.475,34.873-15.562c20.681-16.301,31.543-43.457,27.681-69.186 c-3.964-26.154-26.664-47.963-52.725-50.724c-14.276-1.758-27.446,1.634-37.447,9.389c-10.782,8.065-17.867,20.21-19.412,33.163 c-2.055,13.503,3.019,27.73,12.811,36.165c9.699,8.838,25.791,12.42,37.42,8.42c8.527-2.846,15.745-9.694,19.327-18.337 l-8.239-3.817c-3.036,5.881-8.518,10.236-14.644,11.625c-2.038,0.462-3.875,0.684-5.628,0.684c-7.235,0-14.644-3.12-19.372-8.176 c-6.41-6.689-8.776-15.227-6.845-24.672c1.744-8.492,7.2-16.89,14.2-21.937c7.435-5.309,15.519-7.16,25.652-5.691 c18.59,2.41,34.438,18.293,36.901,37.153c3.333,18.945-4.812,40.137-20.349,52.793c-7.662,6.463-17.037,10.857-27.135,12.709 c-4.128,0.803-8.225,0.954-12.779,1.074l-174.677,4.598c-8.279,0.729-16.854,1.359-25.435,1.984l0.32,9.082L182.578,348.872z"/></g></g></svg>