<?xml version="1.0" encoding="utf-8"?> <!-- Generator: IcoMoon.io --> <!DOCTYPE svg PUBLIC "-//W3C//DTD SVG 1.1//EN" "http://www.w3.org/Graphics/SVG/1.1/DTD/svg11.dtd"> <svg width="512" height="512" viewBox="0 0 512 512" xmlns="http://www.w3.org/2000/svg" xmlns:xlink="http://www.w3.org/1999/xlink" fill="#000000"><g><path d="M 259.371,272.352 L 318.386,429.823 C 318.775,430.748 319.252,431.598 319.761,432.4 C 299.805,439.241 278.359,443 256.002,443 C 237.155,443 218.966,440.31 201.758,435.381 L 259.371,272.352 ZM 448,255.997 C 448,324.982 409.612,385.212 352.53,417.626 L 411.173,252.49 C 422.129,225.813 425.775,204.48 425.775,185.515 C 425.775,178.629 425.306,172.241 424.481,166.286 C 439.47,192.917 448,223.482 448,255.997 ZM 64,255.996 C 64,228.884 69.972,203.147 80.626,179.893 L 172.215,424.285 C 108.161,393.98 64,330.009 64,255.996 ZM 95.582,153.284 C 129.911,102.523 188.924,69 256.004,69 C 305.988,69 351.5,87.613 385.658,118.098 C 384.83,118.049 384.023,117.947 383.17,117.947 C 364.31,117.947 350.927,133.948 350.927,151.135 C 350.927,166.546 360.058,179.583 369.787,194.993 C 377.087,207.446 385.614,223.447 385.614,246.564 C 385.614,262.565 379.296,281.139 371.006,307.014 L 351.85,369.33 L 282.46,168.321 C 294.018,167.732 304.434,166.546 304.434,166.546 C 314.781,165.352 313.563,150.544 303.211,151.135 C 303.211,151.135 272.109,153.511 252.036,153.511 C 233.169,153.511 201.469,151.135 201.469,151.135 C 191.114,150.545 189.899,165.95 200.25,166.546 C 200.25,166.546 210.045,167.729 220.389,168.321 L 250.3,248.146 L 208.278,370.874 L 138.361,168.321 C 149.932,167.73 160.337,166.546 160.337,166.546 C 170.674,165.352 169.453,150.544 159.108,151.135 C 159.108,151.135 128.015,153.511 107.938,153.511 C 104.335,153.511 100.087,153.425 95.582,153.284 ZM 426,0L 86,0 C 38.7,0,0,38.7,0,86l0,340 c0,47.3, 38.7,86, 86,86l 340,0 c 47.3,0, 86-38.7, 86-86L 512,86 C 512,38.7, 473.3,0, 426,0z M 480,256 c0,123.712-100.288,224-224,224S 32,379.712, 32,256S 132.288,32, 256,32S 480,132.288, 480,256z"></path></g></svg>