<?xml version="1.0" encoding="utf-8"?>
<!DOCTYPE svg PUBLIC "-//W3C//DTD SVG 1.1//EN" "http://www.w3.org/Graphics/SVG/1.1/DTD/svg11.dtd">
<svg version="1.1" xmlns="http://www.w3.org/2000/svg" xmlns:xlink="http://www.w3.org/1999/xlink" x="0px" y="0px" width="512px" height="512px" viewBox="0 0 512 512" style="enable-background:new 0 0 512 512;" xml:space="preserve"><g> <circle cx="255" cy="151.615" r="34.461"/> <path d="M255,31C131.49,31,31,131.49,31,255s100.49,224,224,224s224-100.49,224-224S378.51,31,255,31z M255,392.846 c-19.04,0-34.462-15.421-34.462-34.461c0-19.039,15.422-34.461,34.462-34.461s34.461,15.422,34.461,34.461 C289.461,377.425,274.04,392.846,255,392.846z M65.462,255c0-104.503,85.034-189.539,189.538-189.539 c6.939,0,13.799,0.43,20.555,1.153c-2.481-0.067-4.703-0.396-7.236-0.396c56.951,6.184,81.335,51.954,81.335,94.012 c0,51.398-40.562,94.77-94.636,94.77c-52.349,0-94.769,42.42-94.769,94.77c0,49.075,37.254,89.409,85.051,94.29 C145.306,438.951,65.462,356.23,65.462,255z"/> </g> </svg>
